<?xml version="1.0" encoding="utf-8"?>
<!-- Generator: Adobe Illustrator 22.0.0, SVG Export Plug-In . SVG Version: 6.00 Build 0)  -->
<svg version="1.1" id="Camada_1" xmlns="http://www.w3.org/2000/svg" xmlns:xlink="http://www.w3.org/1999/xlink" x="0px" y="0px"
	 viewBox="0 0 150 150" style="enable-background:new 0 0 150 150;" xml:space="preserve">
<style type="text/css">
	.st0{opacity:4.000000e-02;fill:#272525;}
	.st1{fill:#F38E7A;}
	.st2{fill:#79A7FE;}
	.st3{fill:#6BCEBA;}
	.st4{fill:#8C74CC;}
	.st5{fill:url(#SVGID_1_);}
	.st6{fill:url(#SVGID_2_);}
	.st7{fill:url(#SVGID_3_);}
	.st8{fill:url(#SVGID_4_);}
	.st9{fill:#3A3A3A;}
	.st10{fill:url(#SVGID_5_);}
	.st11{fill:url(#SVGID_6_);}
	.st12{fill:url(#SVGID_7_);}
	.st13{fill:url(#SVGID_8_);}
	.st14{fill:#FFFFFF;}
	.st15{fill:#D3E4EA;}
	.st16{fill:#D1AC9D;}
	.st17{fill:#3367BC;}
	.st18{fill:#AFAFAF;}
	.st19{fill:#3F3E3E;}
	.st20{fill:#E8E8E8;}
	.st21{fill:#4C4C4C;}
	.st22{fill:#EDDBCC;}
	.st23{fill:#D6D6D6;}
	.st24{fill:#66B5A0;}
	.st25{fill:#494949;}
	.st26{fill:#EAEAEA;}
	.st27{fill:#E6E7E8;}
	.st28{fill:#F7F7F7;}
	.st29{fill:#595959;}
	.st30{fill:#999999;}
	.st31{fill:#CFCFCF;}
	.st32{fill:#E2E2E2;}
	.st33{fill:#4E9B89;}
	.st34{fill:#E6E6E6;}
	.st35{fill:#9E7D6A;}
	.st36{fill:#2E2E2E;}
	.st37{fill:#D17262;}
	.st38{fill:#DCDBE6;}
	.st39{fill:#4D4E4F;}
	.st40{fill:#75787A;}
	.st41{fill:#F1F1F2;}
	.st42{fill:#F4F4F4;}
	.st43{fill:#736357;}
	.st44{fill:#606060;}
	.st45{fill:#3D3D3D;}
	.st46{fill:#AD5E51;}
	.st47{fill:#BA9E80;}
	.st48{fill:#4D4D4D;}
	.st49{fill:#B3987B;}
	.st50{fill:#F2F2F2;}
	.st51{fill:#EDEDEE;}
	.st52{fill:#DADADB;}
	.st53{fill:#F8F7F6;}
	.st54{opacity:7.000000e-02;}
	.st55{fill:#BAA895;}
	.st56{fill:#EADDD0;}
	.st57{fill:#333333;}
	.st58{fill:#97A8B2;}
	.st59{fill:#787878;}
	.st60{fill:#686868;}
	.st61{fill:url(#SVGID_9_);}
	.st62{fill:#E7BCA2;}
	.st63{fill:#CBA68F;}
	.st64{fill:#E8BDA3;}
	.st65{fill:#C99209;}
	.st66{fill:#BC8E75;}
	.st67{fill:#AA7B66;}
	.st68{fill:#3D404C;}
	.st69{fill:#BA4A4C;}
	.st70{fill:#755C4C;}
</style>
<g>
	<g>
		<g>
			<g>
				<path class="st14" d="M47.1,84.5c-1.4,0-2.6,1.2-2.6,2.6c0,1.4,1.2,2.6,2.6,2.6c1.4,0,2.6-1.2,2.6-2.6
					C49.7,85.7,48.5,84.5,47.1,84.5z"/>
				<path class="st14" d="M116.8,64.4L98.4,57c-3.1-1.2-6.3-1.9-9.6-1.9H77.5c-4,0-8.1,1-11.7,2.8l-16.7,8.5l-12,1.7
					c-2.9,0.4-5.6,1.9-7.5,4.1c-1.9,2.2-3,5.1-3,8v7.1c0,1.1,0.9,2,2,2h8.5c0.4,1.9,1.4,3.7,2.8,5.1c1.9,1.9,4.4,2.9,7.1,2.9
					c2.7,0,5.2-1,7.1-2.9c1.4-1.4,2.4-3.2,2.8-5.1h35.4c0.4,1.9,1.4,3.7,2.8,5.1c1.9,1.9,4.4,2.9,7.1,2.9c2.7,0,5.2-1,7.1-2.9
					c1.4-1.4,2.4-3.2,2.8-5.1h9c1.1,0,2-0.9,2-2V74.1C123.3,69.8,120.8,66,116.8,64.4z M96.9,60.7l14.2,5.7h-10.7l-4.7-6.1
					C96.1,60.4,96.5,60.6,96.9,60.7z M79.3,59.1h9.4c0.4,0,0.7,0,1.1,0l5.6,7.2H79.3V59.1z M67.6,61.5c2.4-1.2,5.1-2,7.8-2.3v7.2
					H57.9L67.6,61.5z M37.4,72.2c-0.8,2.7-3.2,4.8-6.2,5.1C32.2,74.7,34.5,72.7,37.4,72.2z M47.1,93.4c-3.4,0-6.2-2.8-6.2-6.2
					s2.8-6.2,6.2-6.2c3.4,0,6.2,2.8,6.2,6.2C53.3,90.6,50.5,93.4,47.1,93.4z M102.4,93.4c-3.4,0-6.2-2.8-6.2-6.2s2.8-6.2,6.2-6.2
					c3.4,0,6.2,2.8,6.2,6.2C108.6,90.6,105.8,93.4,102.4,93.4z M119.4,85.4h-6.9c-0.8-4.8-5-8.5-10-8.5c-5,0-9.2,3.7-10,8.5H57.1
					c-0.8-4.8-5-8.5-10-8.5c-5,0-9.2,3.7-10,8.5h-6.4v-4.1c5.6-0.1,10.2-4.3,10.9-9.7l8.3-1.2h49.6c0,0,0,0,0,0c0,0,0,0,0,0h12.5
					v2.6c0,3.6,2.9,6.6,6.6,6.6h0.9L119.4,85.4L119.4,85.4z M119.4,75.5h-0.9c-1.4,0-2.6-1.2-2.6-2.6v-2.6h2.3
					c0.8,1.1,1.2,2.4,1.2,3.7L119.4,75.5L119.4,75.5z"/>
				<path class="st14" d="M102.4,84.5c-1.4,0-2.6,1.2-2.6,2.6c0,1.4,1.2,2.6,2.6,2.6c1.4,0,2.6-1.2,2.6-2.6
					C105,85.7,103.8,84.5,102.4,84.5z"/>
			</g>
		</g>
	</g>
	<g>
		<g>
			<path class="st14" d="M81.5,75.9H68.3c-1.1,0-2,0.9-2,2c0,1.1,0.9,2,2,2h13.1c1.1,0,2-0.9,2-2C83.4,76.8,82.5,75.9,81.5,75.9z"/>
		</g>
	</g>
	<g id="SVGCleanerId_0_1_">
		<g>
			<path class="st14" d="M47.1,84.5c-1.4,0-2.6,1.2-2.6,2.6c0,1.4,1.2,2.6,2.6,2.6c1.4,0,2.6-1.2,2.6-2.6
				C49.7,85.7,48.5,84.5,47.1,84.5z"/>
		</g>
	</g>
	<g id="SVGCleanerId_1_1_">
		<g>
			<path class="st14" d="M102.4,84.5c-1.4,0-2.6,1.2-2.6,2.6c0,1.4,1.2,2.6,2.6,2.6c1.4,0,2.6-1.2,2.6-2.6
				C105,85.7,103.8,84.5,102.4,84.5z"/>
		</g>
	</g>
	<g>
		<g>
			<path class="st14" d="M47.1,84.5c-1.4,0-2.6,1.2-2.6,2.6c0,1.4,1.2,2.6,2.6,2.6c1.4,0,2.6-1.2,2.6-2.6
				C49.7,85.7,48.5,84.5,47.1,84.5z"/>
		</g>
	</g>
	<g>
		<g>
			<path class="st14" d="M102.4,84.5c-1.4,0-2.6,1.2-2.6,2.6c0,1.4,1.2,2.6,2.6,2.6c1.4,0,2.6-1.2,2.6-2.6
				C105,85.7,103.8,84.5,102.4,84.5z"/>
		</g>
	</g>
</g>
</svg>
