<?xml version="1.0" encoding="utf-8"?>
<!-- Generator: Adobe Illustrator 24.1.0, SVG Export Plug-In . SVG Version: 6.00 Build 0)  -->
<svg version="1.1" id="Camada_1" xmlns="http://www.w3.org/2000/svg" xmlns:xlink="http://www.w3.org/1999/xlink" x="0px" y="0px"
	 viewBox="0 0 150 150" style="enable-background:new 0 0 150 150;" xml:space="preserve">
<style type="text/css">
	.st0{fill:#00CFB9;}
	.st1{fill:#FFFFFF;}
</style>
<circle class="st0" cx="75" cy="75" r="75"/>
<g>
	<path class="st1" d="M112.1,61.6c-0.1-0.4-0.3-0.8-0.6-1.1c-2.3-1.9-2.6-4-3-5.8v-0.2c-0.1-0.8-0.8-1.4-1.6-1.6c-0.2,0-0.5,0-0.7,0
		c-1.5,0-3.6,0.6-4.9,2c-0.3,0.3-0.5,0.7-0.5,1.1c-0.1,0.8-0.2,1.5-0.2,2.1c-0.2,2.3-0.3,2.3-0.7,2.4c-0.6,0.2-1.1,0.7-1.3,1.3
		c-0.6,1.9-1.3,3.7-2.2,5.4c-0.4-0.8-0.9-1.5-1.3-2.1c-1.4-2.1-2.3-3.6-2-5.5c1.2-6.8,0.6-12-1.9-15.3c-1.3-1.8-3.1-3-5.4-3.7
		c0.6-3.1,2.8-4.4,3.9-4.7c0.5-0.1,0.9-0.5,1.2-0.9c0.3-0.4,0.3-1,0.2-1.5c-0.1-0.5-0.5-0.9-0.9-1.2s-1-0.3-1.5-0.2
		c-2.8,0.8-6,3.5-6.7,8c-2.3,0.1-4.3,0.8-6,2.2c-3.3,2.6-5.2,7.4-5.9,14.3c-0.2,1.8-1.4,2.9-3.2,4.5c-1.4,1.3-3,2.7-4.3,4.8
		c-1.4-0.6-3-0.9-4.5-1.1c0.6-2.9,2.7-4.2,3.8-4.5c0.5-0.1,0.9-0.5,1.2-0.9s0.3-1,0.2-1.5s-0.5-0.9-0.9-1.2s-1-0.3-1.5-0.2
		c-0.6,0.2-1.2,0.4-1.7,0.7c-0.4-1.5-1.2-2.9-2.3-4c-1.7-1.7-4-2.6-6.4-2.6c-0.8,0-1.6,0.1-2.3,0.3s-1.2,0.7-1.4,1.4
		c-0.8,3.1,0.1,6.5,2.3,8.7c1.4,1.4,3.3,2.3,5.3,2.6c-0.1,0.3-0.2,0.7-0.2,1.1c-9.4,0.9-16.8,9-16.8,18.5c0,10.2,8.3,18.6,18.6,18.6
		c3.7,0,7.3-1.1,10.3-3.1c0.4,0.2,0.8,0.3,1.2,0.5c4.4,1.7,8.9,2.6,13.3,2.6c7.1,0,13.7-2.3,19-6.7c5.6-4.6,9.7-11.3,11.9-19.5
		C112.4,73,113.1,66.7,112.1,61.6z M50.3,54.6c1.5,0,2.8,0.5,3.8,1.5s1.6,2.4,1.5,3.8c-1.4,0-2.8-0.5-3.8-1.5l0,0
		C50.8,57.5,50.3,56.1,50.3,54.6z M56,68.6c8.1,0,14.7,6.6,14.7,14.7c0,0.7,0,1.4-0.1,2.1c-0.6,0.1-1.2,0.1-1.8,0.2
		c0.1-0.7,0.2-1.5,0.2-2.2c0-1.7-0.3-3.4-1-4.9c-0.4-1-1.5-1.5-2.5-1c-1,0.4-1.5,1.5-1,2.5c0.5,1.1,0.7,2.3,0.7,3.5
		c0,0.7-0.1,1.5-0.3,2.2c-1.9-0.1-3.8-0.5-5.7-1c-0.6-0.1-1.1,0-1.6,0.3c-1.4,1-2.7,2.2-3.5,4.5c-0.3,0.7,0,1.6,0.6,2.1
		c2.4,2,5,3.8,7.6,5.3c-1.9,0.9-4,1.3-6.2,1.3c-8.1,0-14.7-6.6-14.7-14.7C41.2,75.2,47.9,68.6,56,68.6z M91.8,67.2
		c0.8,1.2,1.6,2.5,2.2,3.9c-4.7,6.7-11.7,11.6-19.4,13.5c0-0.4,0-0.9,0-1.3c0-6.4-3.2-12.2-8.5-15.6c1-1.5,2.3-2.6,3.5-3.7
		c2-1.8,4.1-3.7,4.4-7c0.5-5.8,2-9.7,4.4-11.6c1.4-1.1,3.1-1.5,5.1-1.3c2,0.3,3.5,1.1,4.6,2.5c1.8,2.5,2.2,6.7,1.2,12.4
		C88.6,62.3,90.2,64.8,91.8,67.2z M59,88.5c2.7,0.6,5.4,1,8.1,1c7.9,0,15.5-2.7,22-7.8c3.3-2.6,6.1-5.6,8.4-9.1l0.1-0.1
		c1.8-2.7,3.2-5.6,4.2-8.6c2.1-1.2,2.3-3.4,2.4-5.4c0-0.4,0.1-0.8,0.1-1.2c0.2-0.1,0.4-0.2,0.6-0.3c0.4,1.8,1.2,4,3.4,6
		c0.6,4.2,0.1,9.5-0.5,11.7c-3.9,14.6-14.1,23.4-27.2,23.4C73.1,98.1,65,95,58,89.5C58.4,89.1,58.7,88.8,59,88.5z"/>
	<path class="st1" d="M84.8,46.1L84.8,46.1c-1-0.4-2.1,0.1-2.5,1c-0.2,0.5-0.2,1,0,1.5s0.6,0.8,1,1c0.6,0.2,1.4,2.7,0.4,8.3
		c-0.1,0.5,0,1,0.3,1.4s0.7,0.7,1.2,0.8c0.1,0,0.2,0,0.3,0c0.9,0,1.7-0.7,1.9-1.6C88.8,51.7,87.8,47.4,84.8,46.1z"/>
	<path class="st1" d="M93.1,90.9c0.4,0,0.8-0.1,1.1-0.4l0,0c0.8-0.6,1-1.8,0.4-2.7c-0.3-0.4-0.8-0.7-1.3-0.7c-0.5-0.1-1,0.1-1.4,0.4
		l0,0c-0.9,0.6-1,1.8-0.4,2.7C91.9,90.6,92.4,90.9,93.1,90.9z"/>
	<path class="st1" d="M91.4,91.7c0.2-0.5,0.1-1-0.1-1.5l0,0c-0.5-0.9-1.6-1.3-2.6-0.8c-4.9,2.5-8.9,2.4-9,2.4c-1.1,0-1.9,0.8-2,1.8
		c0,0.5,0.2,1,0.5,1.4s0.8,0.6,1.3,0.6c0,0,0.1,0,0.2,0c1.2,0,5.5-0.2,10.6-2.8C90.9,92.6,91.3,92.2,91.4,91.7z"/>
	<path class="st1" d="M62.5,76.9c0.4,0.4,0.8,0.6,1.4,0.6c0.5,0,1-0.2,1.4-0.6s0.6-0.8,0.6-1.4c0-0.5-0.2-1-0.6-1.4L65.2,74
		c-0.8-0.7-2-0.7-2.7,0C61.7,74.9,61.7,76.1,62.5,76.9L62.5,76.9z"/>
</g>
</svg>
