<?xml version="1.0" encoding="utf-8"?>
<!-- Generator: Adobe Illustrator 24.1.0, SVG Export Plug-In . SVG Version: 6.00 Build 0)  -->
<svg version="1.1" id="Camada_1" xmlns="http://www.w3.org/2000/svg" xmlns:xlink="http://www.w3.org/1999/xlink" x="0px" y="0px"
	 viewBox="0 0 150 150" style="enable-background:new 0 0 150 150;" xml:space="preserve">
<style type="text/css">
	.st0{fill:#9475D0;}
	.st1{fill:#FFFFFF;}
</style>
<circle class="st0" cx="75" cy="75" r="75"/>
<g>
	<g>
		<g>
			<g>
				<path class="st1" d="M47.1,84.5c-1.4,0-2.6,1.2-2.6,2.6s1.2,2.6,2.6,2.6c1.4,0,2.6-1.2,2.6-2.6C49.7,85.7,48.5,84.5,47.1,84.5z"
					/>
				<path class="st1" d="M116.8,64.4L98.4,57c-3.1-1.2-6.3-1.9-9.6-1.9H77.5c-4,0-8.1,1-11.7,2.8l-16.7,8.5l-12,1.7
					c-2.9,0.4-5.6,1.9-7.5,4.1s-3,5.1-3,8v7.1c0,1.1,0.9,2,2,2h8.5c0.4,1.9,1.4,3.7,2.8,5.1c1.9,1.9,4.4,2.9,7.1,2.9
					c2.7,0,5.2-1,7.1-2.9c1.4-1.4,2.4-3.2,2.8-5.1h35.4c0.4,1.9,1.4,3.7,2.8,5.1c1.9,1.9,4.4,2.9,7.1,2.9s5.2-1,7.1-2.9
					c1.4-1.4,2.4-3.2,2.8-5.1h9c1.1,0,2-0.9,2-2V74.1C123.3,69.8,120.8,66,116.8,64.4z M96.9,60.7l14.2,5.7h-10.7l-4.7-6.1
					C96.1,60.4,96.5,60.6,96.9,60.7z M79.3,59.1h9.4c0.4,0,0.7,0,1.1,0l5.6,7.2H79.3V59.1z M67.6,61.5c2.4-1.2,5.1-2,7.8-2.3v7.2
					H57.9L67.6,61.5z M37.4,72.2c-0.8,2.7-3.2,4.8-6.2,5.1C32.2,74.7,34.5,72.7,37.4,72.2z M47.1,93.4c-3.4,0-6.2-2.8-6.2-6.2
					s2.8-6.2,6.2-6.2s6.2,2.8,6.2,6.2S50.5,93.4,47.1,93.4z M102.4,93.4c-3.4,0-6.2-2.8-6.2-6.2S99,81,102.4,81
					c3.4,0,6.2,2.8,6.2,6.2S105.8,93.4,102.4,93.4z M119.4,85.4h-6.9c-0.8-4.8-5-8.5-10-8.5s-9.2,3.7-10,8.5H57.1
					c-0.8-4.8-5-8.5-10-8.5s-9.2,3.7-10,8.5h-6.4v-4.1c5.6-0.1,10.2-4.3,10.9-9.7l8.3-1.2h49.6l0,0l0,0H112V73
					c0,3.6,2.9,6.6,6.6,6.6h0.9L119.4,85.4L119.4,85.4z M119.4,75.5h-0.9c-1.4,0-2.6-1.2-2.6-2.6v-2.6h2.3c0.8,1.1,1.2,2.4,1.2,3.7
					V75.5L119.4,75.5z"/>
				<path class="st1" d="M102.4,84.5c-1.4,0-2.6,1.2-2.6,2.6s1.2,2.6,2.6,2.6s2.6-1.2,2.6-2.6S103.8,84.5,102.4,84.5z"/>
			</g>
		</g>
	</g>
	<g>
		<g>
			<path class="st1" d="M81.5,75.9H68.3c-1.1,0-2,0.9-2,2s0.9,2,2,2h13.1c1.1,0,2-0.9,2-2S82.5,75.9,81.5,75.9z"/>
		</g>
	</g>
	<g id="SVGCleanerId_0_1_">
		<g>
			<path class="st1" d="M47.1,84.5c-1.4,0-2.6,1.2-2.6,2.6s1.2,2.6,2.6,2.6c1.4,0,2.6-1.2,2.6-2.6C49.7,85.7,48.5,84.5,47.1,84.5z"
				/>
		</g>
	</g>
	<g id="SVGCleanerId_1_1_">
		<g>
			<path class="st1" d="M102.4,84.5c-1.4,0-2.6,1.2-2.6,2.6s1.2,2.6,2.6,2.6s2.6-1.2,2.6-2.6S103.8,84.5,102.4,84.5z"/>
		</g>
	</g>
	<g>
		<g>
			<path class="st1" d="M47.1,84.5c-1.4,0-2.6,1.2-2.6,2.6s1.2,2.6,2.6,2.6c1.4,0,2.6-1.2,2.6-2.6C49.7,85.7,48.5,84.5,47.1,84.5z"
				/>
		</g>
	</g>
	<g>
		<g>
			<path class="st1" d="M102.4,84.5c-1.4,0-2.6,1.2-2.6,2.6s1.2,2.6,2.6,2.6s2.6-1.2,2.6-2.6S103.8,84.5,102.4,84.5z"/>
		</g>
	</g>
</g>
</svg>
