<?xml version="1.0" encoding="utf-8"?>
<!-- Generator: Adobe Illustrator 24.1.0, SVG Export Plug-In . SVG Version: 6.00 Build 0)  -->
<svg version="1.1" id="Camada_1" xmlns="http://www.w3.org/2000/svg" xmlns:xlink="http://www.w3.org/1999/xlink" x="0px" y="0px"
	 viewBox="0 0 150 150" style="enable-background:new 0 0 150 150;" xml:space="preserve">
<style type="text/css">
	.st0{fill:#5FA9FF;}
	.st1{fill:#FFFFFF;}
</style>
<circle class="st0" cx="75" cy="75" r="75"/>
<g>
	<path class="st1" d="M75.7,66.6c-4.9,0-8.8,4-8.8,8.8c0,4.9,4,8.8,8.8,8.8c4.9,0,8.8-4,8.8-8.8C84.5,70.5,80.6,66.6,75.7,66.6z
		 M80.3,75.4c0,2.5-2.1,4.6-4.6,4.6s-4.6-2.1-4.6-4.6s2.1-4.6,4.6-4.6C78.2,70.8,80.3,72.9,80.3,75.4z"/>
	<path class="st1" d="M106.7,91.1c-0.4-4.7-2.2-10.2-5.4-15.7c2.8-5,4.6-9.9,5.2-14.3c0.6-4.5-0.1-8.4-2-11.3
		c0.3-0.7,0.4-1.5,0.4-2.2c0-3.4-2.7-6.1-6.1-6.1c-2.1,0-4,1.1-5.1,2.8c-5.2-0.2-11.6,1.8-18.1,5.4c-5.6-3.2-11-5-15.7-5.4
		c-4.8-0.3-8.9,1-11.6,3.7c-2.3,2.3-3.6,5.7-3.7,9.7c-2.1,1-3.4,3.2-3.4,5.5c0,3.3,2.6,6,5.8,6.1c0.8,2,1.8,4.1,3,6.1
		c-3.2,5.6-5,11-5.4,15.7c-0.4,4.9,0.9,8.9,3.6,11.7c2.4,2.4,5.9,3.7,10,3.7c5.1,0,11.1-1.9,17.4-5.5c6.3,3.6,12.3,5.5,17.4,5.5
		c4.1,0,7.6-1.3,10-3.7C105.8,100.1,107.1,96,106.7,91.1z M49.3,63.2c0,0.5-0.2,1-0.6,1.3c-0.4,0.4-0.8,0.6-1.3,0.6
		c-1.1,0-1.9-0.9-1.9-1.9s0.9-1.9,1.9-1.9C48.4,61.3,49.3,62.1,49.3,63.2L49.3,63.2z M51.3,99.8c-3.7-3.7-3.2-11.5,1.4-20.3
		c2.4,3.6,5.3,7.1,8.6,10.3c3.3,3.3,6.7,6.2,10.3,8.6C62.7,103,55,103.5,51.3,99.8z M61.2,61c-3.3,3.3-6.2,6.7-8.6,10.3
		c-0.6-1.1-1.1-2.2-1.5-3.3c1.5-1.2,2.4-2.9,2.4-4.8c0-2.8-1.9-5.3-4.6-5.9c0.1-2.6,1-4.8,2.4-6.3c3.7-3.7,11.5-3.2,20.3,1.4
		C68,54.8,64.5,57.7,61.2,61z M97,47.6c0-1.1,0.9-1.9,1.9-1.9c1.1,0,1.9,0.9,1.9,1.9s-0.9,1.9-1.9,1.9C97.8,49.5,97,48.7,97,47.6z
		 M79.8,98.4c3.6-2.4,7.1-5.3,10.3-8.6c3.3-3.3,6.2-6.7,8.6-10.3c4.5,8.9,5.1,16.6,1.4,20.3C96.4,103.5,88.6,103,79.8,98.4z
		 M102.4,60.6c-0.4,3.2-1.7,6.9-3.6,10.7c-2.4-3.6-5.3-7.1-8.6-10.3c-3.3-3.3-6.7-6.2-10.3-8.6c4.8-2.5,9.3-3.8,13.1-3.8
		c0.4,3,3,5.2,6,5.2c0.9,0,1.9-0.2,2.7-0.6C102.5,55.1,102.8,57.6,102.4,60.6z M96.4,75.4c-2.5,4-5.6,7.8-9.2,11.5
		c-3.6,3.6-7.5,6.7-11.5,9.2c-4-2.5-7.8-5.6-11.5-9.2c-3.6-3.6-6.7-7.5-9.2-11.5c2.5-4,5.6-7.8,9.2-11.5c3.6-3.6,7.5-6.7,11.5-9.2
		c4,2.5,7.8,5.6,11.5,9.2C90.8,67.6,93.9,71.4,96.4,75.4z"/>
</g>
</svg>
