<?xml version="1.0" encoding="utf-8"?>
<!-- Generator: Adobe Illustrator 24.1.0, SVG Export Plug-In . SVG Version: 6.00 Build 0)  -->
<svg version="1.1" id="Camada_1" xmlns="http://www.w3.org/2000/svg" xmlns:xlink="http://www.w3.org/1999/xlink" x="0px" y="0px"
	 viewBox="0 0 150 150" style="enable-background:new 0 0 150 150;" xml:space="preserve">
<style type="text/css">
	.st0{fill:#9475D0;}
	.st1{fill:#FFFFFF;}
</style>
<circle class="st0" cx="75" cy="75" r="75"/>
<path class="st1" d="M115.6,64l-0.6,0.5L115.6,64L115.6,64c-1.9-1.9-4-2.4-5-2.6c-1.1-0.2-2.1-0.4-3.2-0.2c-2.5-5.3-6.6-9.8-12.3-13
	C89.3,44.8,82.3,43,75,43c-6.9,0-13.5,1.8-19.2,5.2c-5.4,3.3-9.7,7.8-12.2,13.1c-1.4-0.2-2.7-0.1-4.1,0.1c-0.9,0.2-3.1,0.7-5,2.6
	c-0.4,0.4-3.3,3.4-2.6,7.8c0.7,4.3,4.4,7,7.6,7.7c0.9,0.2,2,0.2,3,0.1c0.2,1.2,0.5,4.5-1.3,13.4c-0.1,0.5,0,0.8,0.1,1.3
	c1.4,4.4,3.7,6.7,7.2,7.3v4.8c0,1.4,1.2,2.6,2.6,2.6s2.6-1.2,2.6-2.6v-4.7h42.6v4.7c0,1.4,1.2,2.6,2.6,2.6s2.6-1.2,2.6-2.6v-4.8
	c3.5-0.6,5.9-3,7.2-7.3c0.1-0.5,0.1-0.8,0.1-1.3c-1.8-9-1.5-12.3-1.3-13.4c0.9,0.1,2,0.1,3-0.1c3.2-0.7,6.9-3.4,7.6-7.7
	C118.8,67.7,116.3,64.8,115.6,64z M103.6,93.3c-0.9,2.8-2.1,3-3,3.1H49.3c-0.9-0.1-2-0.2-3-3.1c2.4-11.9,1.9-17.3-1.7-18.8
	c-1.2-0.6-2.2-0.4-2.8-0.2h-0.1c-0.5,0.1-0.8,0.1-1.2,0c-1.2-0.2-3.2-1.4-3.4-3.3c-0.2-1.5,0.7-2.8,1.1-3.3l0,0
	c0.8-0.8,1.8-0.9,2.4-1.1c0.8-0.2,1.7-0.2,2.5,0c1.1,0.2,1.7,0.7,2.7,1.4h0.1c1.2,0.8,2.2,1.9,3.1,3.1c0.6,0.9,1.2,1.9,1.5,3.1
	c1.5,4.3,1.7,9.8,1.7,11.9c0,1.4,1.2,2.6,2.6,2.6h40.4c1.4,0,2.6-1.2,2.6-2.6c0-2.7,0.2-7.9,1.7-12.1c0.4-1.2,0.9-2.1,1.5-3.1
	c0.8-1.2,1.9-2.2,3.1-3.1c0.9-0.7,1.7-1.2,2.7-1.4c0.8-0.2,1.7-0.2,2.6,0c0.6,0.1,1.5,0.4,2.4,1.2c0,0,1.4,1.5,1.2,3.3
	c-0.4,2-2.2,3.1-3.4,3.3c-0.4,0.1-0.8,0.1-1.2,0l0,0c-0.6-0.1-1.8-0.4-3,0.2C101.7,76.1,101.2,81.3,103.6,93.3z M101.1,63.7
	c-1.8,1.2-3.2,2.7-4.4,4.4c-0.8,1.3-1.7,2.7-2.1,4.3c-1.1,3-1.8,6.7-1.9,11.1H57.4c-0.1-3.2-0.6-7.4-1.9-11.1
	c-0.6-1.5-1.3-3-2.1-4.3c-1.2-1.8-2.7-3.2-4.4-4.4c-0.1-0.1-0.4-0.2-0.5-0.4c4.5-9.1,15-15.1,26.6-15.1c12.3,0,22.9,5.7,27.3,14.7
	C102,63.1,101.5,63.3,101.1,63.7z"/>
</svg>
