<?xml version="1.0" encoding="utf-8"?>
<!-- Generator: Adobe Illustrator 24.1.0, SVG Export Plug-In . SVG Version: 6.00 Build 0)  -->
<svg version="1.1" id="Camada_1" xmlns="http://www.w3.org/2000/svg" xmlns:xlink="http://www.w3.org/1999/xlink" x="0px" y="0px"
	 viewBox="0 0 150 150" style="enable-background:new 0 0 150 150;" xml:space="preserve">
<style type="text/css">
	.st0{fill:#00CFB9;}
	.st1{fill:#FFFFFF;}
</style>
<circle class="st0" cx="75" cy="75" r="75"/>
<g>
	<path class="st1" d="M99.7,48.3C93.1,41.7,84.3,38.1,75,38.1s-18.1,3.6-24.7,10.2c-0.4,0.4-0.6,0.9-0.6,1.4s0.2,1,0.6,1.4
		c0.4,0.4,0.9,0.6,1.4,0.6s1-0.2,1.4-0.6C58.9,45.3,66.7,42,75,42s16,3.2,21.9,9.1c5.8,5.8,9.1,13.6,9.1,21.9s-3.2,16-9.1,21.9
		c-12.1,12.1-31.7,12.1-43.7,0c-5.1-5.1-8.3-11.8-8.9-19c-0.7-7.1,1.1-14.2,5.1-20c0.6-0.9,0.4-2.2-0.6-2.8
		c-0.9-0.6-2.2-0.4-2.8,0.6c-4.4,6.6-6.5,14.7-5.7,22.6c0.7,8,4.3,15.7,10,21.4c6.6,6.6,15.4,10.2,24.7,10.2s18.1-3.6,24.7-10.2
		s10.2-15.4,10.2-24.7C109.9,63.7,106.3,54.9,99.7,48.3z"/>
	<path class="st1" d="M54.9,93.1c5.4,5.4,12.5,8.3,20.1,8.3s14.8-3,20.1-8.3c11.1-11.1,11.1-29.2,0-40.3c-11.1-11-29.1-11-40.2,0.1
		S43.8,82,54.9,93.1z M57.7,55.7c4.6-4.6,10.8-7.2,17.3-7.2s12.7,2.5,17.3,7.2c9.5,9.5,9.5,25.1,0,34.6s-25.1,9.5-34.6,0
		S48.2,65.2,57.7,55.7z"/>
	<path class="st1" d="M69.3,79.4c0-1.1-0.9-2-2-2s-2,0.9-2,2c0,4,3.3,7.4,7.7,8.2v0.7c0,1.1,0.9,2,2,2s2-0.9,2-2v-0.7
		c4.4-0.8,7.7-4.2,7.7-8.2S81.4,72,77,71.2v-8.7c2.2,0.6,3.7,2.3,3.7,4.1c0,1.1,0.9,2,2,2s2-0.9,2-2c0-4-3.3-7.4-7.7-8.2v-0.7
		c0-1.1-0.9-2-2-2s-2,0.9-2,2v0.7c-4.4,0.8-7.7,4.2-7.7,8.2s3.3,7.4,7.7,8.2v8.7C70.8,82.9,69.3,81.3,69.3,79.4z M69.3,66.6
		c0-1.8,1.5-3.5,3.7-4.1v8.2C70.8,70.1,69.3,68.5,69.3,66.6z M77,83.5v-8.2c2.2,0.6,3.7,2.3,3.7,4.1C80.7,81.3,79.2,82.9,77,83.5z"
		/>
</g>
</svg>
