<?xml version="1.0" encoding="utf-8"?>
<!-- Generator: Adobe Illustrator 24.1.0, SVG Export Plug-In . SVG Version: 6.00 Build 0)  -->
<svg version="1.1" id="Camada_1" xmlns="http://www.w3.org/2000/svg" xmlns:xlink="http://www.w3.org/1999/xlink" x="0px" y="0px"
	 viewBox="0 0 150 150" style="enable-background:new 0 0 150 150;" xml:space="preserve">
<style type="text/css">
	.st0{fill:#FF8F79;}
	.st1{fill:#FFFFFF;}
</style>
<circle class="st0" cx="75" cy="75" r="75"/>
<g>
	<path class="st1" d="M112.1,51.5h-2.9v-2.7c0-1-0.7-1.8-1.7-1.9l-19.6-2.3c-4.4-0.5-8.8,0.2-12.8,2.1c-4-1.9-8.4-2.6-12.8-2.1
		l-19.6,2.3c-1,0.1-1.7,0.9-1.7,1.9v2.7h-2.9c-1,0-1.9,0.8-1.9,1.9v46.3c0,1,0.8,1.9,1.9,1.9h74.1c1,0,1.9-0.8,1.9-1.9V53.4
		C114,52.3,113.1,51.5,112.1,51.5z M105.4,91.6l-17.5-2.1c-0.9-0.1-1.8-0.2-2.8-0.2c-2.8,0-5.6,0.5-8.2,1.5V49.9
		c3.3-1.5,6.9-2,10.5-1.6l18,2.1V91.6z M41.5,95.1c0.4,0.4,0.9,0.5,1.5,0.5l19.6-2.3c4-0.5,8,0.3,11.5,2.1c0.5,0.3,1.2,0.3,1.7,0
		c3.6-1.8,7.6-2.6,11.5-2.1l19.6,2.3c0.5,0.1,1.1-0.1,1.5-0.5s0.6-0.9,0.6-1.4V55.3h1v42.6H39.8V55.3h1v38.5
		C40.8,94.2,41.1,94.8,41.5,95.1z M73.1,90.8c-2.6-1-5.4-1.5-8.2-1.5c-0.9,0-1.9,0.1-2.8,0.2l-17.5,2.1V50.4l18-2.1
		c3.6-0.4,7.2,0.1,10.5,1.6C73.1,49.9,73.1,90.8,73.1,90.8z"/>
	<path class="st1" d="M78.8,52.6c-1,0.3-1.6,1.3-1.3,2.3c0.1,0.5,0.4,0.9,0.9,1.1c0.4,0.3,0.9,0.3,1.4,0.2c2.5-0.7,5-0.9,7.6-0.6
		l14.7,1.7c0.1,0,0.1,0,0.2,0c1,0,1.8-0.7,1.9-1.7s-0.6-2-1.7-2.1L87.8,52C84.8,51.6,81.8,51.8,78.8,52.6z"/>
	<path class="st1" d="M47.4,53.7c-1,0.1-1.8,1.1-1.7,2.1s0.9,1.7,1.9,1.7c0.1,0,0.1,0,0.2,0l14.7-1.7c2.6-0.3,5.1-0.1,7.6,0.6
		c1,0.3,2-0.3,2.3-1.3c0.1-0.5,0.1-1-0.2-1.4c-0.3-0.4-0.7-0.8-1.1-0.9c-2.9-0.8-6-1-9-0.7L47.4,53.7z"/>
	<path class="st1" d="M78.4,62.6c0.4,0.3,0.9,0.3,1.4,0.2c2.5-0.7,5-0.9,7.6-0.6l14.7,1.7c0.1,0,0.1,0,0.2,0c1,0,1.8-0.7,1.9-1.7
		s-0.6-2-1.7-2.1l-14.7-1.7c-3-0.4-6.1-0.1-9,0.7c-0.5,0.1-0.9,0.4-1.1,0.9c-0.3,0.4-0.3,0.9-0.2,1.4C77.6,61.9,77.9,62.3,78.4,62.6
		z"/>
	<path class="st1" d="M71.1,59.1c-2.9-0.8-6-1-9-0.7l-14.7,1.7c-1,0.1-1.8,1.1-1.7,2.1s0.9,1.7,1.9,1.7c0.1,0,0.1,0,0.2,0l14.7-1.7
		c2.6-0.3,5.1-0.1,7.6,0.6c1,0.3,2-0.3,2.3-1.3c0.1-0.5,0.1-1-0.2-1.4C72,59.6,71.6,59.3,71.1,59.1z"/>
	<path class="st1" d="M78.4,69.1c0.4,0.3,0.9,0.3,1.4,0.2c2.5-0.7,5-0.9,7.6-0.6l14.7,1.7c0.1,0,0.1,0,0.2,0c1,0,1.8-0.7,1.9-1.7
		s-0.6-2-1.7-2.1L87.8,65c-3-0.4-6.1-0.1-9,0.7c-0.5,0.1-0.9,0.4-1.1,0.9c-0.3,0.4-0.3,0.9-0.2,1.4S77.9,68.8,78.4,69.1z"/>
	<path class="st1" d="M71.1,65.6c-2.9-0.8-6-1-9-0.7l-14.7,1.7c-1,0.1-1.8,1.1-1.7,2.1s0.9,1.7,1.9,1.7c0.1,0,0.1,0,0.2,0l14.7-1.7
		c2.6-0.3,5.1-0.1,7.6,0.6c0.5,0.1,1,0.1,1.4-0.2c0.4-0.3,0.8-0.7,0.9-1.1c0.1-0.5,0.1-1-0.2-1.4C72,66.1,71.6,65.8,71.1,65.6z"/>
	<path class="st1" d="M78.4,75.6c0.4,0.3,0.9,0.3,1.4,0.2c2.5-0.7,5-0.9,7.6-0.6l14.7,1.7c0.1,0,0.1,0,0.2,0c1,0,1.8-0.7,1.9-1.7
		s-0.6-2-1.7-2.1l-14.7-1.7c-3-0.4-6.1-0.1-9,0.7c-0.5,0.1-0.9,0.4-1.1,0.9c-0.3,0.4-0.3,0.9-0.2,1.4S77.9,75.3,78.4,75.6z"/>
	<path class="st1" d="M71.1,72.1c-2.9-0.8-6-1-9-0.7l-14.7,1.7c-1,0.1-1.8,1.1-1.7,2.1s0.9,1.7,1.9,1.7c0.1,0,0.1,0,0.2,0l14.7-1.7
		c2.6-0.3,5.1-0.1,7.6,0.6c1,0.3,2-0.3,2.3-1.3c0.1-0.5,0.1-1-0.2-1.4C72,72.6,71.6,72.3,71.1,72.1z"/>
	<path class="st1" d="M102.6,79.7L87.9,78c-3-0.4-6.1-0.1-9,0.7c-0.5,0.1-0.9,0.4-1.1,0.9c-0.3,0.4-0.3,0.9-0.2,1.4
		c0.1,0.5,0.4,0.9,0.9,1.1c0.4,0.3,0.9,0.3,1.4,0.2c2.5-0.7,5-0.9,7.6-0.6l14.7,1.7c0.1,0,0.1,0,0.2,0c1,0,1.8-0.7,1.9-1.7
		C104.3,80.7,103.6,79.8,102.6,79.7z"/>
	<path class="st1" d="M71.1,78.6c-2.9-0.8-6-1-9-0.7l-14.7,1.7c-1,0.1-1.8,1.1-1.7,2.1s0.9,1.7,1.9,1.7c0.1,0,0.1,0,0.2,0l14.7-1.7
		c2.6-0.3,5.1-0.1,7.6,0.6c0.5,0.1,1,0.1,1.4-0.2c0.4-0.3,0.8-0.7,0.9-1.1c0.1-0.5,0.1-1-0.2-1.4C72,79.1,71.6,78.8,71.1,78.6z"/>
</g>
</svg>
