<?xml version="1.0" encoding="utf-8"?>
<!-- Generator: Adobe Illustrator 24.1.0, SVG Export Plug-In . SVG Version: 6.00 Build 0)  -->
<svg version="1.1" id="Camada_1" xmlns="http://www.w3.org/2000/svg" xmlns:xlink="http://www.w3.org/1999/xlink" x="0px" y="0px"
	 viewBox="0 0 150 150" style="enable-background:new 0 0 150 150;" xml:space="preserve">
<style type="text/css">
	.st0{fill:#9475D0;}
	.st1{fill:#FFFFFF;}
</style>
<circle class="st0" cx="75" cy="75" r="75"/>
<g>
	<path class="st1" d="M94.8,36.1H88c-1.2,0-2.2,1-2.2,2.2c0,1.2,1,2.2,2.2,2.2h6.8c2.7,0,4.9,2.2,4.9,4.9v57.5
		c0,2.7-2.2,4.9-4.9,4.9H55.2c-2.7,0-4.9-2.2-4.9-4.9V45.3c0-2.7,2.2-4.9,4.9-4.9H81c1.2,0,2.2-1,2.2-2.2c0-1.2-1-2.2-2.2-2.2H55.2
		c-5.1,0-9.2,4.1-9.2,9.2v57.5c0,5.1,4.1,9.2,9.2,9.2h39.6c5.1,0,9.2-4.1,9.2-9.2V45.3C104,40.2,99.9,36.1,94.8,36.1z"/>
	<path class="st1" d="M93.7,63.2c-0.4-0.6-1.1-1.1-1.8-1.1h-10l-5.1-8.6c-0.4-0.6-1.1-1.1-1.8-1.1s-1.4,0.4-1.8,1.1l-5.1,8.7h-10
		c-0.7,0-1.4,0.4-1.8,1.1c-0.4,0.6-0.4,1.4,0,2.2l5.1,8.7l-5.1,8.7c-0.4,0.6-0.4,1.4,0,2.2c0.4,0.6,1.1,1.1,1.8,1.1h10l5.1,8.7
		c0.4,0.6,1.1,1.1,1.8,1.1s1.4-0.4,1.8-1.1l5.1-8.7h10c0.7,0,1.4-0.4,1.8-1.1c0.4-0.6,0.4-1.4,0-2.2L88.8,74l5.1-8.7
		C94.1,64.7,94.1,63.9,93.7,63.2z M76.9,85.8L75,89.2l-1.9-3.4C73.1,85.8,76.9,85.8,76.9,85.8z M73.1,62.2l1.9-3.4l1.9,3.4H73.1z
		 M88.3,81.6h-4l1.9-3.4L88.3,81.6z M84.3,66.4h4l-1.9,3.4L84.3,66.4z M83.8,74l-4.5,7.6h-8.8L66.2,74l4.5-7.6h8.8L83.8,74z
		 M65.7,81.6h-4l1.9-3.4L65.7,81.6z M61.7,66.4h4l-1.9,3.4L61.7,66.4z"/>
	<path class="st1" d="M61.1,42.9c-1.2,0-2.2,1-2.2,2.2v1.3h-1.3c-1.2,0-2.2,1-2.2,2.2c0,1.2,1,2.2,2.2,2.2h1.3v1.3
		c0,1.2,1,2.2,2.2,2.2c1.2,0,2.2-1,2.2-2.2v-1.3h1.3c1.2,0,2.2-1,2.2-2.2c0-1.2-1-2.2-2.2-2.2h-1.3v-1.3
		C63.3,43.8,62.3,42.9,61.1,42.9z"/>
	<path class="st1" d="M88.9,105.2c1.2,0,2.2-1,2.2-2.2v-1.3h1.3c1.2,0,2.2-1,2.2-2.2c0-1.2-1-2.2-2.2-2.2h-1.3V96
		c0-1.2-1-2.2-2.2-2.2s-2.2,1-2.2,2.2v1.3h-1.3c-1.2,0-2.2,1-2.2,2.2c0,1.2,1,2.2,2.2,2.2h1.3v1.3C86.7,104.2,87.7,105.2,88.9,105.2
		z"/>
</g>
</svg>
