<?xml version="1.0" encoding="utf-8"?>
<!-- Generator: Adobe Illustrator 24.1.0, SVG Export Plug-In . SVG Version: 6.00 Build 0)  -->
<svg version="1.1" id="Camada_1" xmlns="http://www.w3.org/2000/svg" xmlns:xlink="http://www.w3.org/1999/xlink" x="0px" y="0px"
	 viewBox="0 0 150 150" style="enable-background:new 0 0 150 150;" xml:space="preserve">
<style type="text/css">
	.st0{fill:#00CFB9;}
	.st1{fill:#FFFFFF;}
</style>
<circle class="st0" cx="75" cy="75" r="75"/>
<g>
	<path class="st1" d="M105.6,51.5c-6-8.2-14.8-13.5-24.8-15.1c-10-1.5-20,0.9-28.3,6.9S39,58.2,37.4,68.2c-1.3,8.7,0.4,17.3,4.7,25
		l0,0c0.7,1.2,1.4,2.2,2.1,3.3c5.3,7.3,13.2,12.5,21.9,14.5c0.4,0.1,0.7,0.1,1.2,0.2c0.1,0,0.2,0,0.4,0c2.4,0.5,4.8,0.7,7.2,0.7
		c2.4,0,4.8-0.2,7.2-0.7c0.1,0,0.1,0,0.2,0c3.3-0.7,6.6-1.8,9.5-3.3c0.5-0.2,0.8-0.7,1.1-1.2c0.1-0.5,0.1-1.1-0.1-1.6
		c-0.2-0.5-0.7-0.8-1.2-1.1c-0.5-0.1-1.1-0.1-1.6,0.1c-1.3,0.6-2.6,1.2-3.9,1.6l5.1-8.8l10-1.9c-0.7,0.9-1.5,1.9-2.4,2.7
		c-0.4,0.4-0.6,0.9-0.6,1.5s0.2,1.1,0.6,1.5c0.4,0.4,0.9,0.6,1.5,0.6l0,0c0.6,0,1.1-0.2,1.5-0.6c2.2-2.2,4.2-4.8,5.9-7.5
		c0,0,0,0,0-0.1c2.7-4.6,4.4-9.5,4.9-14.7v-0.1c0-0.5,0.1-0.9,0.1-1.3C113.6,68,111,58.9,105.6,51.5z M108.8,73.3l-7.2-7.4l1.3-11.1
		C106.6,60.1,108.7,66.7,108.8,73.3z M87.8,71.3l10.8-2.5l9.8,10c-0.6,4-1.9,7.9-3.8,11.4l-13.5,2.6l-6.8-10.5L87.8,71.3z
		 M69.1,84.8h11.8l6.8,10.5l-6.9,12.1c-3.8,0.6-7.5,0.6-11.3,0l-6.9-12.1L69.1,84.8z M51.3,68.9l10.8,2.5l3.7,11.1L59,93l-13.7-2.6
		c-2-3.5-3.3-7.4-3.9-11.5L51.3,68.9z M86.8,67.3l-9.7-6.9V50l2-1.4c0.5-0.4,0.7-0.8,0.8-1.4c0.1-0.6,0-1.1-0.4-1.5
		c-0.7-0.9-2-1.2-2.9-0.5l-1.8,1.3l-8.5-5.2c4.5-1.2,9.1-1.4,13.8-0.7c7.3,1.2,13.9,4.5,19.1,9.8l-1.6,14.6L86.8,67.3z M69.6,80.7
		l-3.3-10.4l8.8-6.4l8.8,6.4l-3.3,10.4H69.6z M61.3,43l11.5,7.1v10.2l-9.7,6.9l-10.8-2.5l-2.1-13.9c1.4-1.5,3.1-2.9,4.7-4.2
		C57,45.3,59.1,44,61.3,43z M46.7,55.4l1.6,10.5l-7.3,7.3c0-1.4,0.1-2.9,0.4-4.4l0,0C42.3,64,44,59.4,46.7,55.4z M58.6,97.1l5.1,8.8
		c-6-2.1-11.2-5.8-15.2-10.8L58.6,97.1z"/>
	<path class="st1" d="M82,41.9c-0.6,0-1.1,0.2-1.5,0.6c-0.4,0.4-0.6,0.9-0.6,1.5s0.2,1.1,0.6,1.5c0.4,0.4,0.9,0.6,1.5,0.6
		s1.1-0.2,1.5-0.6c0.4-0.4,0.6-0.9,0.6-1.5s-0.2-1.1-0.6-1.5C83.1,42.1,82.5,41.9,82,41.9z"/>
	<path class="st1" d="M97.6,101.6c-0.4-0.4-0.9-0.6-1.5-0.6s-1.1,0.2-1.5,0.6c-0.4,0.4-0.6,0.9-0.6,1.5s0.2,1.1,0.6,1.4
		c0.4,0.4,0.9,0.6,1.5,0.6s1.1-0.2,1.5-0.6c0.4-0.4,0.6-0.9,0.6-1.5C98.2,102.5,98,101.9,97.6,101.6L97.6,101.6z"/>
</g>
</svg>
