<?xml version="1.0" encoding="utf-8"?>
<!-- Generator: Adobe Illustrator 24.1.0, SVG Export Plug-In . SVG Version: 6.00 Build 0)  -->
<svg version="1.1" id="Camada_1" xmlns="http://www.w3.org/2000/svg" xmlns:xlink="http://www.w3.org/1999/xlink" x="0px" y="0px"
	 viewBox="0 0 150 150" style="enable-background:new 0 0 150 150;" xml:space="preserve">
<style type="text/css">
	.st0{fill:#5FA9FF;}
	.st1{fill:#FFFFFF;}
</style>
<circle class="st0" cx="75" cy="75" r="75"/>
<path class="st1" d="M81.3,64v-6.2c0-2.5,0.1-2.9,2.6-2.9c3.7,0,7,0,7.4,0h2.2l0.4-15l-2-0.3c0,0-3.6-0.5-8.4-0.5
	c-14,0-18.9,9.2-18.9,17.2v7.7h-8.6v16.2h8.6v32.3h16.8V80.1h12L94.2,64H81.3z M76.8,75.6v32.2H69V75.6h-8.6v-7.1H69V56.3
	c0-6.2,3.8-12.7,14.4-12.7c2.4,0,4.5,0.1,5.9,0.3l-0.1,6.6c-1.6,0-3.6,0-5.3,0c-6.3,0-7.1,4-7.1,7.4v10.7h12.5l-0.4,7.1H76.8V75.6z"
	/>
</svg>
