<?xml version="1.0" encoding="utf-8"?>
<!-- Generator: Adobe Illustrator 24.1.0, SVG Export Plug-In . SVG Version: 6.00 Build 0)  -->
<svg version="1.1" id="Camada_1" xmlns="http://www.w3.org/2000/svg" xmlns:xlink="http://www.w3.org/1999/xlink" x="0px" y="0px"
	 viewBox="0 0 150 150" style="enable-background:new 0 0 150 150;" xml:space="preserve">
<style type="text/css">
	.st0{fill:#00CFB9;}
	.st1{fill:#FFFFFF;}
</style>
<circle class="st0" cx="75" cy="75" r="75"/>
<g>
	<g>
		<path class="st1" d="M104.2,55.8h-1.4c-0.5,0-1.1,0.1-1.6,0.2c-0.5-2.7-2.9-4.7-5.7-4.7h-1.4c-3.2,0-5.8,2.6-5.8,5.8v9.3H61.5
			V55.9c0-3.2-2.6-5.8-5.8-5.8h-1.4c-2.8,0-5.2,2-5.7,4.7c-0.5-0.1-1-0.2-1.6-0.2h-1.4c-3.2,0-5.8,2.6-5.8,5.8v24
			c0,3.2,2.6,5.8,5.8,5.8H47c0.5,0,1.1-0.1,1.6-0.2c0.5,2.7,2.9,4.7,5.7,4.7h1.4c3.2,0,5.8-2.6,5.8-5.8v-8.4h26.9V90
			c0,3.2,2.6,5.8,5.8,5.8h1.4c2.8,0,5.2-2,5.7-4.7c0.5,0.1,1,0.2,1.6,0.2h1.4c3.2,0,5.8-2.6,5.8-5.8v-24
			C110,58.4,107.4,55.8,104.2,55.8z M48.6,84.4c0,0.8-0.7,1.5-1.5,1.5h-1.4c-0.8,0-1.5-0.7-1.5-1.5v-24c0-0.8,0.7-1.5,1.5-1.5h1.4
			c0.8,0,1.5,0.7,1.5,1.5V84.4z M57.2,88.9c0,0.8-0.7,1.5-1.5,1.5h-1.4c-0.8,0-1.5-0.7-1.5-1.5v-33c0-0.8,0.7-1.5,1.5-1.5h1.4
			c0.8,0,1.5,0.7,1.5,1.5V88.9z M88.5,76.2h-27v-5.5h26.9L88.5,76.2L88.5,76.2z M97.1,90.1c0,0.8-0.7,1.5-1.5,1.5h-1.4
			c-0.8,0-1.5-0.7-1.5-1.5v-33c0-0.8,0.7-1.5,1.5-1.5h1.4c0.8,0,1.5,0.7,1.5,1.5V90.1z M105.7,85.6c0,0.8-0.7,1.5-1.5,1.5h-1.4
			c-0.8,0-1.5-0.7-1.5-1.5v-24c0-0.8,0.7-1.5,1.5-1.5h1.4c0.8,0,1.5,0.7,1.5,1.5V85.6z"/>
	</g>
</g>
</svg>
