<?xml version="1.0" encoding="utf-8"?>
<!-- Generator: Adobe Illustrator 24.1.0, SVG Export Plug-In . SVG Version: 6.00 Build 0)  -->
<svg version="1.1" id="Camada_1" xmlns="http://www.w3.org/2000/svg" xmlns:xlink="http://www.w3.org/1999/xlink" x="0px" y="0px"
	 viewBox="0 0 150 150" style="enable-background:new 0 0 150 150;" xml:space="preserve">
<style type="text/css">
	.st0{fill:#9475D0;}
	.st1{fill:#FFFFFF;}
</style>
<circle class="st0" cx="75" cy="75" r="75"/>
<g>
	<circle class="st1" cx="87.3" cy="69.8" r="2.2"/>
	<circle class="st1" cx="47.8" cy="49" r="2.2"/>
	<path class="st1" d="M108.4,61.7H83V46.1c0-2.8-2.3-5.1-5.1-5.1H41.5c-2.8,0-5.1,2.3-5.1,5.1V64c0,5.6,1.7,11,5,15.9
		c3.3,4.7,7.8,8.4,13,10.7l2.3,1c2.1,0.8,4.4,0.8,6.4,0l2.3-1c0.7-0.4,1.5-0.6,2.2-1c1.7,9.6,8.2,17.8,17.6,21.8l2.3,1
		c1,0.5,2.1,0.6,3.2,0.6s2.2-0.2,3.2-0.6l2.3-1c5.2-2.3,9.7-5.9,13-10.7c3.3-4.7,5-10.3,5-15.9V66.8C113.6,64,111.3,61.7,108.4,61.7
		z M76.3,82.3c1.3,1,3,1.5,4.6,1.5c1.9,0,3.9-0.7,5.3-2.1c0.8-0.8,1-2.2,0.2-3c-0.8-0.8-2.2-1-3-0.2c-0.7,0.6-1.6,1-2.5,1
		c-0.7,0-1.5-0.2-2.1-0.6c2.4-3.9,3.9-8.4,4.2-12.8h25.5c0.5,0,0.8,0.4,0.8,0.8v17.9c0,9.6-6.2,18.7-15.3,22.5l-2.3,1
		c-1,0.4-2.1,0.4-2.9,0l-2.3-1c-8.5-3.6-14.4-11.6-15.2-20.4C73.1,85.6,74.8,84.2,76.3,82.3z M78.7,46.1V64
		c0,9.7-6.1,18.5-15.3,22.5l-2.3,1c-1,0.4-2.1,0.4-2.9,0l-2.3-1c-9.2-3.9-15.3-13-15.3-22.5V46.1c0-0.5,0.4-0.8,0.8-0.8H78
		C78.4,45.2,78.7,45.6,78.7,46.1z"/>
	<path class="st1" d="M68.5,67.7H50.8c-1.2,0-2.2,1-2.2,2.2c0,6.1,5,11,11,11s11-5,11-11C70.7,68.6,69.7,67.7,68.5,67.7z M66.1,72
		c-1,2.7-3.5,4.6-6.4,4.6c-2.9,0-5.5-1.8-6.4-4.6H66.1z"/>
	<path class="st1" d="M53.3,61.1c0.8,0.8,2.3,0.7,3-0.2c0.4-0.5,0.6-1,0.5-1.6c0-0.6-0.2-1.1-0.7-1.5c-1.5-1.3-3.4-2.1-5.3-2.1
		c-1.9,0-3.9,0.7-5.3,2.1c-0.5,0.4-0.7,1-0.7,1.5c0,0.6,0.1,1.1,0.5,1.6c0.4,0.5,1,0.7,1.5,0.7h0.1c0.5,0,1.1-0.2,1.5-0.5
		c0.7-0.6,1.6-1,2.5-1C51.7,60.2,52.5,60.5,53.3,61.1z"/>
	<path class="st1" d="M74,57.8c-1.5-1.3-3.4-2.1-5.3-2.1s-3.9,0.7-5.3,2.1c-0.8,0.8-1,2.2-0.2,3c0.4,0.5,1,0.7,1.5,0.7h0.1
		c0.5,0,1.1-0.2,1.5-0.5c0.7-0.6,1.6-1,2.5-1s1.8,0.4,2.5,1c0.8,0.8,2.3,0.7,3-0.2C75,60,74.8,58.6,74,57.8z"/>
	<path class="st1" d="M53.7,51.2h17.8c1.2,0,2.2-1,2.2-2.2c0-1.2-1-2.2-2.2-2.2H53.7c-1.2,0-2.2,1-2.2,2.2
		C51.6,50.2,52.5,51.2,53.7,51.2z"/>
	<path class="st1" d="M81.4,101.6h17.8c1.2,0,2.2-1,2.2-2.2c0-6.1-5-11-11-11c-6.1,0-11,5-11,11C79.2,100.6,80.2,101.6,81.4,101.6z
		 M83.8,97.2c1-2.7,3.5-4.6,6.4-4.6c2.9,0,5.5,1.8,6.4,4.6H83.8z"/>
	<path class="st1" d="M101.6,78.6L101.6,78.6c-0.7,0.6-1.6,1-2.5,1c-1,0-1.8-0.4-2.5-1c-0.8-0.8-2.3-0.7-3,0.2
		c-0.4,0.5-0.6,1-0.5,1.6c0,0.6,0.2,1.1,0.7,1.5c1.5,1.3,3.4,2.1,5.3,2.1s3.9-0.7,5.3-2.1c0.5-0.4,0.7-1,0.7-1.5
		c0-0.6-0.1-1.1-0.5-1.6C103.9,77.8,102.5,77.7,101.6,78.6z"/>
	<path class="st1" d="M93.1,72h8.8c1.2,0,2.2-1,2.2-2.2s-1-2.2-2.2-2.2h-8.8c-1.2,0-2.2,1-2.2,2.2S92,72,93.1,72z"/>
</g>
</svg>
