<?xml version="1.0" encoding="utf-8"?>
<!-- Generator: Adobe Illustrator 24.1.0, SVG Export Plug-In . SVG Version: 6.00 Build 0)  -->
<svg version="1.1" id="Camada_1" xmlns="http://www.w3.org/2000/svg" xmlns:xlink="http://www.w3.org/1999/xlink" x="0px" y="0px"
	 viewBox="0 0 150 150" style="enable-background:new 0 0 150 150;" xml:space="preserve">
<style type="text/css">
	.st0{fill:#5FA9FF;}
	.st1{fill:#FFFFFF;}
</style>
<circle class="st0" cx="75" cy="75" r="75"/>
<g>
	<path class="st1" d="M89.4,44H60.6c-9.5,0-17.3,7.7-17.3,17.3v28.8c0,9.5,7.7,17.3,17.3,17.3h28.8c9.5,0,17.3-7.7,17.3-17.3V61.3
		C106.7,51.7,99,44,89.4,44z M101,61.3v28.8c0,6.3-5.1,11.6-11.6,11.6H60.6c-6.3,0-11.6-5.1-11.6-11.6V61.3
		c0-6.3,5.1-11.6,11.6-11.6h28.8C95.7,49.7,101,54.8,101,61.3z"/>
	<path class="st1" d="M85.4,65.3c-2.1-2.1-5-3.6-8.1-4.1c-1.4-0.2-2.9-0.2-4.2,0c-3.8,0.6-7.2,2.6-9.4,5.7
		c-2.3,3.1-3.2,6.9-2.6,10.7c0.6,3.8,2.6,7.2,5.7,9.4c2.5,1.9,5.5,2.9,8.6,2.9c0.7,0,1.4,0,2.1-0.1c3.8-0.6,7.2-2.6,9.4-5.7
		c2.3-3.1,3.2-6.9,2.6-10.7C88.9,70.3,87.5,67.6,85.4,65.3z M70,82.5c-1.9-1.4-3.1-3.5-3.5-5.7c-0.4-2.3,0.2-4.5,1.7-6.4
		c1.4-1.9,3.5-3.1,5.7-3.5c0.5-0.1,0.8-0.1,1.3-0.1s0.8,0,1.3,0.1c3.8,0.6,6.8,3.5,7.3,7.3c0.4,2.3-0.2,4.5-1.7,6.4
		c-1.4,1.9-3.5,3.1-5.7,3.5C74.2,84.5,71.8,83.9,70,82.5z"/>
	<path class="st1" d="M90.8,57c-0.7,0-1.5,0.4-2,0.8c-0.5,0.5-0.8,1.3-0.8,2c0,0.7,0.4,1.5,0.8,2c0.5,0.5,1.3,0.8,2,0.8
		c0.7,0,1.5-0.4,2-0.8c0.5-0.5,0.8-1.3,0.8-2c0-0.7-0.4-1.5-0.8-2C92.4,57.2,91.6,57,90.8,57z"/>
</g>
</svg>
