<?xml version="1.0" encoding="utf-8"?>
<!-- Generator: Adobe Illustrator 24.1.0, SVG Export Plug-In . SVG Version: 6.00 Build 0)  -->
<svg version="1.1" id="Camada_1" xmlns="http://www.w3.org/2000/svg" xmlns:xlink="http://www.w3.org/1999/xlink" x="0px" y="0px"
	 viewBox="0 0 150 150" style="enable-background:new 0 0 150 150;" xml:space="preserve">
<style type="text/css">
	.st0{fill:#FF8F79;}
	.st1{fill:#FFFFFF;}
</style>
<circle class="st0" cx="75" cy="75" r="75"/>
<g>
	<path class="st1" d="M95.2,104.5c-0.6-1-1.8-1.3-2.8-0.7l0,0c-1,0.6-1.3,1.8-0.7,2.8c0.4,0.6,1.1,1.1,1.8,1.1
		c0.4,0,0.7-0.1,1.1-0.2l0,0C95.4,106.8,95.7,105.5,95.2,104.5L95.2,104.5z"/>
	<path class="st1" d="M108.6,54.3c-5.2-8.9-13.5-15.4-23.6-18c-10-2.7-20.4-1.3-29.4,3.9c-9.1,5.2-15.5,13.5-18.1,23.6
		c-2.7,10-1.3,20.4,3.9,29.4c4.6,8.1,12.1,14.1,20.8,17.2c4.1,1.5,8.5,2.2,12.8,2.2c4.7,0,9.4-0.8,13.9-2.5c0.5-0.2,1-0.6,1.1-1.1
		c0.2-0.5,0.2-1.1,0-1.6c-0.2-0.5-0.6-1-1.1-1.1c-0.5-0.2-1.1-0.2-1.6,0c-11.1,4.2-23.3,2.7-32.9-4.4l1.2-6.3l0.4-0.1
		c2.8-0.8,4.2-3.9,3.4-6.5l-0.5-1.6c-0.1-0.2-0.1-0.5,0-0.7c0.5-1.5,0.2-3-0.5-4.2c-0.7-1.3-2.1-2.2-3.5-2.5l-3.3-0.6l-6.4-4.8
		c-0.5-0.4-1.2-0.5-1.9-0.4l-3.1,1c0-0.6,0-1.3,0-2.1c0.4,0.2,0.7,0.4,1.2,0.4c0.6,0,1.3-0.1,2.8-0.4c1.2-0.2,2.5-0.4,2.5-0.4
		c0.7-0.1,1.3-0.6,1.6-1.2c0.2-0.6,0.2-1.3-0.2-1.9l-1.6-2.2l2.2-1.6c0.2-0.1,0.5-0.4,0.6-0.6l4-7l1.6-1.7c1.8-1.9,2.3-4.8,1.3-7.3
		c-0.5-1.2-1.3-2.2-2.3-3c1.1-0.8,2.3-1.6,3.5-2.3c4.8-2.8,10.2-4.4,15.7-4.6l-1.5,2.2l-9.8,3.4c-0.6,0.2-1,0.6-1.2,1.2l-2.8,6.6
		c-0.2,0.6-0.2,1.5,0.2,1.9l3.7,5.2c-0.5,0.5-1,1.2-1.6,1.9c-0.2,0.4-0.6,0.8-0.7,1c-0.1,0.2-0.4,0.4-0.5,0.6
		c-0.8,1-1.8,2.1-2.5,3.5c-1.5,3.1-1.2,6.8,0.8,9.6c1.9,2.7,5.1,4,8.5,3.6c0.6-0.1,1.1-0.2,1.6-0.4c1.3-0.4,1.5-0.2,1.6-0.1l0,0
		c0,0.1,0,0.4,0,0.4c0,0.4,0,1,0.1,1.6c0.2,1.1,1,1.8,1.5,2.3c0.1,0.1,0.4,0.5,0.5,0.5c0.4,1,0.2,1.3-0.2,2.7c0,0.1-0.1,0.2-0.1,0.4
		c-0.7,2.3,0.2,4.5,1.1,6.4c0.2,0.6,0.5,1.1,0.7,1.6c1.5,4.2,2.5,5.2,3.5,5.6c0.5,0.2,1,0.4,1.6,0.4l0,0c2.9,0,5.6-3.1,5.9-3.5
		c0.7-0.8,1-1.8,1.1-2.4c0-0.2,0.1-0.4,0.1-0.5c0.1-0.1,0.2-0.4,0.5-0.5c0.4-0.5,1-1.1,1.3-2.2c0.2-0.6,0.4-0.7,0.8-1.3
		c0.1-0.1,0.2-0.2,0.4-0.4c2.2-2.4,1.6-4.4,1.1-6.2c-0.4-1.1,0.2-1.8,2.2-3.6c0.8-0.8,1.7-1.6,2.4-2.7c0.4-0.5,1.3-1.9,0.7-3.5
		c-0.7-1.6-2.3-1.8-3.5-1.9c-0.2,0-1-0.1-1.1-0.2c-0.7-0.5-1.3-1.7-1.8-2.8l0,0c-0.1-0.2-0.2-0.5-0.4-0.7c-0.2-0.4-0.4-0.8-0.6-1.5
		c-0.6-1.5-1.2-3.1-2.3-4.4c-1.1-1.1-2.9-1.6-4.6-2.1c-0.5-0.1-1-0.2-1.3-0.4c-0.4-0.1-0.8-0.1-1.2-0.1c-0.8,0.2-1.5,0.5-1.8,0.7
		c-0.1,0.1-0.2,0.2-0.4,0.4c-0.4-0.2-0.7-0.4-1-0.6c0.1-0.6-0.1-1.1-0.2-1.5c-1-2.1-4.1-1.9-4.7-1.9c-0.2,0-0.7,0-1.1,0
		c-0.4,0-0.7,0-1.1,0c0.6-0.8,1.6-1.5,2.7-1.5h0.8c1.1,0,2.1-1,2.1-2.1c0-1.1-1-2.1-2.1-2.1h-0.8c-2.3,0-4.4,1.1-5.8,2.8l-1.6-2.2
		l1.9-4.8l9.4-3.3c0.4-0.1,0.7-0.4,1-0.6l4.1-5.2c11,1.2,20.9,7.5,26.5,17.2c1.5,2.5,2.5,5.2,3.4,8.1l-0.4,0.4
		c-0.5,0.4-0.8,0.8-1.1,1.5l-0.4-1.1c-0.1-0.5-0.5-1-0.7-1.3l-2.1-1.6c-0.8-1-2.1-1.6-3.3-1.6h-2.3c-1,0-1.9,0.6-2.4,1.5
		c-0.5,0.8-0.5,1.9,0.1,2.8c-1.2,1-2.5,1.7-3.9,2.3l-2.8-5.3v-1.2c0-0.6-0.2-1.1-0.6-1.5L86.1,56c-0.2-0.2-0.5-0.4-0.7-0.5l-2.7-0.8
		c-0.5-0.2-1.1-0.1-1.6,0.1c-0.5,0.2-0.8,0.6-1.1,1.2c-0.4,1.1,0.2,2.3,1.2,2.7l2.1,0.7l1.8,1.7V62c0,0.4,0.1,0.6,0.2,1l3.9,7.4
		c0.5,1,1.6,1.3,2.5,1l1.1-0.4c2.7-1,5.2-2.5,7.3-4.6c0.5-0.5,0.7-1.1,0.6-1.7l1.8,2.2l0,0l2.1,5.6c0.2,0.7,0.8,1.2,1.5,1.3
		c0.1,0,0.2,0,0.5,0c0.6,0,1.1-0.2,1.5-0.6l1-1c0.1-0.1,0.4-0.4,0.5-0.5c0.7,11.4-4.2,22.6-13.1,29.6c-0.8,0.7-1.1,2.1-0.4,2.9
		c0.4,0.5,0.8,0.7,1.3,0.7c0.6,0.1,1.1-0.1,1.6-0.5c7.3-5.7,12.3-13.9,14-23C114.9,72.1,113.3,62.6,108.6,54.3z M73.4,61.6
		L73.4,61.6L73.4,61.6L73.4,61.6L73.4,61.6z M42.7,65.1c-0.8,0.6-1.1,1.9-0.5,2.9l0.8,1.2c-0.2,0-0.5,0.1-0.7,0.1c0,0,0,0-0.1-0.1
		c-0.4-0.2-0.7-0.7-1.3-1.2c1.2-7.3,4.8-14,10-19.1c0.8,0.4,1.5,1,1.8,1.8c0.4,1,0.2,2.2-0.5,2.9l-1.8,1.9c-0.1,0.1-0.2,0.2-0.2,0.4
		l-3.9,6.9L42.7,65.1z M55.1,88.7l0.5,1.5c0.2,0.6-0.1,1.2-0.7,1.3l-1.5,0.5c-0.7,0.2-1.2,0.8-1.3,1.6l-1,5.2
		c-2.3-2.3-4.4-4.8-5.9-7.6c-2.1-3.6-3.5-7.6-4.2-11.7l2.9-1l5.9,4.5c0.2,0.2,0.6,0.4,0.8,0.4l3.7,0.7c0.4,0.1,0.6,0.2,0.7,0.5
		c0.1,0.2,0.2,0.6,0.1,0.8C54.7,86.5,54.7,87.6,55.1,88.7z M84.6,85.8c0.5,1.5,0.5,1.5-0.1,2.1c-0.1,0.1-0.2,0.2-0.4,0.4
		c-0.7,0.7-1.3,1.5-1.8,2.9c-0.1,0.2-0.2,0.4-0.5,0.7c-0.2,0.2-0.6,0.6-0.8,1.2c-0.4,0.6-0.5,1.3-0.6,1.8c-0.1,0.4-0.1,0.5-0.2,0.6
		c-0.4,0.5-1.1,1.1-1.7,1.6c-0.4,0.2-0.6,0.4-0.7,0.4c-0.2-0.4-0.7-1.2-1.3-3c-0.2-0.7-0.5-1.3-0.8-1.9c-0.6-1.2-1.2-2.7-1-3.4
		l0.1-0.4c0.5-1.6,1.1-3.3,0.1-5.6c-0.4-0.7-0.8-1.3-1.2-1.7c-0.1-0.1-0.4-0.4-0.5-0.5c0-0.1,0-0.4,0-0.6c0-0.8,0-2.2-1.3-3.5
		c-1.9-1.8-4.1-1.2-5.4-0.8c-0.4,0.1-0.7,0.1-1,0.2c-1.9,0.2-3.5-0.5-4.6-1.9c-1.1-1.6-1.2-3.6-0.4-5.4c0.4-0.8,1.1-1.6,1.8-2.5
		c0.1-0.2,0.4-0.4,0.5-0.6c0.4-0.4,0.6-0.8,1-1.3c0.7-1,1.1-1.6,1.3-1.7c0.6-0.2,2.2-0.4,3-0.4c0.4,0,0.8,0,1.2,0c0,0.1,0,0.2,0,0.2
		c0.1,0.6,0.5,1.2,1.1,1.5c0.2,0.1,0.6,0.4,1.1,0.6c1.2,0.8,2.7,1.7,4,1.8c1.3,0.1,2.2-0.7,2.4-1l0,0c0.1-0.1,0.1-0.1,0.2-0.2
		c0.1,0,0.2,0.1,0.4,0.1c1.6,0.4,2.4,0.7,2.7,1c0.6,0.6,1.1,1.8,1.5,2.9c0.2,0.6,0.5,1.1,0.7,1.7c0.1,0.2,0.2,0.4,0.2,0.6l0,0
		c0.7,1.6,1.6,3.4,3.4,4.6c0.6,0.4,1.3,0.6,2.1,0.7c-0.4,0.4-0.7,0.7-1.2,1.2C86,79.6,83.3,82,84.6,85.8z"/>
	<path class="st1" d="M89.3,91.9c-0.5,1.1-1.5,3.5-0.1,5.6c1.1,1.6,2.2,1.8,3,1.8c0.1,0,0.4,0,0.5,0c1.8-0.2,3-2.1,4.1-5.4l1.8-5.9
		c0.1-0.4,0.1-0.7,0-1.1l-0.7-2.7c-0.2-0.8-0.8-1.5-1.7-1.6c-0.8-0.1-1.7,0.4-2.1,1.1c-0.1,0.4-0.4,0.6-0.5,1
		c-0.2,0.5-0.5,1-0.6,1.2c-0.1,0.1-0.5,0.2-0.7,0.4c-0.8,0.5-2.3,1.1-2.8,2.8c-0.4,1-0.2,1.8-0.1,2.4C89.4,91.7,89.4,91.8,89.3,91.9
		L89.3,91.9z M93.4,90.3c0,0,0.1-0.1,0.2-0.1l-0.2,0.6l0,0C93.4,90.5,93.4,90.4,93.4,90.3z"/>
	<path class="st1" d="M77.3,52.8L77.3,52.8c-1.2-0.4-2.3,0.1-2.8,1.2c-0.2,0.5-0.1,1.1,0.1,1.6c0.2,0.5,0.6,0.8,1.2,1.1H76
		c0.2,0.1,0.5,0.1,0.7,0.1c0.8,0,1.7-0.6,1.9-1.3C78.9,54.3,78.4,53.1,77.3,52.8z"/>
</g>
</svg>
