<?xml version="1.0" encoding="utf-8"?>
<!-- Generator: Adobe Illustrator 24.1.0, SVG Export Plug-In . SVG Version: 6.00 Build 0)  -->
<svg version="1.1" id="Camada_1" xmlns="http://www.w3.org/2000/svg" xmlns:xlink="http://www.w3.org/1999/xlink" x="0px" y="0px"
	 viewBox="0 0 150 150" style="enable-background:new 0 0 150 150;" xml:space="preserve">
<style type="text/css">
	.st0{fill:#5FA9FF;}
	.st1{fill:#FFFFFF;}
</style>
<circle class="st0" cx="75" cy="75" r="75"/>
<g>
	<path class="st1" d="M121.5,81.6l-5.9-21.2c-1.2-4.2-4.1-7.8-8-9.7S99.1,48.6,95,50c-2.9,1.1-5.5,3-7.3,5.6H62.3
		c-1.8-2.5-4.2-4.5-7.3-5.6c-4.1-1.6-8.6-1.3-12.6,0.7c-3.9,1.9-6.8,5.6-8,9.7l-5.9,21.2c-1.9,7.1,1.2,14.2,7.6,16.5
		c1.6,0.6,3.3,0.8,5,0.8c5.6,0,10.9-3.1,13.1-7.9l2.7-5.5c1.8,2.2,4.6,3.5,7.5,3.5c4.2,0,7.9-2.7,9.3-6.5h2.8c1.3,4,5.1,6.5,9.3,6.5
		c2.9,0,5.7-1.3,7.5-3.5l2.7,5.5c1.5,3.1,4,5.6,7.3,6.8c3.1,1.3,6.8,1.3,9.9,0.1c3.3-1.2,5.8-3.5,7.4-6.7
		C122.1,88.4,122.4,84.9,121.5,81.6z M104.8,93.9c-2.2-0.8-3.9-2.5-4.8-4.6l-4-8.4c-0.5-1.1-1.6-1.7-2.8-1.6
		c-1.2,0.1-2.2,0.8-2.5,1.9c-0.7,2.1-2.8,3.5-5,3.5c-2.5,0-4.7-1.8-5.2-4.2c-0.2-1.3-1.5-2.3-2.8-2.3h-5.5c-1.3,0-2.5,1-2.8,2.3
		c-0.5,2.4-2.7,4.2-5.2,4.2c-2.2,0-4.2-1.5-5-3.5c-0.4-1.1-1.3-1.8-2.5-1.9c-1.2,0-2.2,0.6-2.8,1.6l-4,8.4
		c-2.1,4.2-7.8,6.4-12.4,4.6c-4.1-1.6-6.2-6.2-4.7-11l5.9-21.2c0.8-3,2.9-5.5,5.7-6.9c1.6-0.8,3.3-1.2,5-1.2c1.3,0,2.7,0.2,3.9,0.7
		c2.2,0.8,3.9,2.2,5.2,4c0.7,1.1,2.1,1.8,3.5,1.8h25.8c1.3,0,2.7-0.7,3.5-1.8c1.3-1.8,3-3.3,5.2-4c2.9-1.1,6.1-1,9,0.5
		c2.8,1.5,4.8,3.9,5.7,6.9l5.9,21.2c0.6,2.2,0.4,4.6-0.6,6.7c-1.1,2.1-2.8,3.6-5,4.5C109.4,94.7,107,94.7,104.8,93.9z"/>
	<circle class="st1" cx="100.7" cy="61.5" r="2.8"/>
	<path class="st1" d="M100.7,70.1c-1.6,0-2.8,1.2-2.8,2.8c0,1.6,1.2,2.8,2.8,2.8s2.8-1.2,2.8-2.8C103.5,71.3,102.3,70.1,100.7,70.1z
		"/>
	<path class="st1" d="M95,64.4c-1.6,0-2.8,1.2-2.8,2.8S93.4,70,95,70c1.6,0,2.8-1.2,2.8-2.8S96.4,64.4,95,64.4z"/>
	<path class="st1" d="M106.4,64.4c-1.6,0-2.8,1.2-2.8,2.8s1.2,2.8,2.8,2.8c1.6,0,2.8-1.2,2.8-2.8C109.2,65.6,108,64.4,106.4,64.4z"
		/>
	<path class="st1" d="M55.1,64.9h-3v-3c0-1.2-1-2.3-2.3-2.3s-2.2,1.1-2.2,2.3v3h-3c-1.2,0-2.3,1-2.3,2.3c0,1.2,1,2.3,2.3,2.3h3v3
		c0,1.2,1,2.3,2.3,2.3s2.3-1,2.3-2.3v-3h3c1.2,0,2.3-1,2.3-2.3C57.4,65.9,56.5,64.9,55.1,64.9z"/>
	<path class="st1" d="M70.6,64.9h-2.1c-1.2,0-2.3,1-2.3,2.3c0,1.2,1,2.3,2.3,2.3h2.1c1.2,0,2.3-1,2.3-2.3S71.9,64.9,70.6,64.9z"/>
	<path class="st1" d="M83.8,67.2c0-1.2-1-2.3-2.3-2.3h-2.1c-1.2,0-2.3,1-2.3,2.3c0,1.2,1,2.3,2.3,2.3h2.1
		C82.8,69.4,83.8,68.4,83.8,67.2z"/>
	<path class="st1" d="M64.3,74.7c-2.3,0-4.2,1.9-4.2,4.2s1.9,4.2,4.2,4.2c2.3,0,4.2-1.9,4.2-4.2S66.7,74.7,64.3,74.7z M65,79
		c0,0.4-0.2,0.6-0.6,0.6s-0.6-0.2-0.6-0.6s0.2-0.6,0.6-0.6S65,78.6,65,79z"/>
	<path class="st1" d="M85.8,74.7c-2.3,0-4.2,1.9-4.2,4.2s1.9,4.2,4.2,4.2S90,81.3,90,79C89.9,76.7,88.1,74.7,85.8,74.7z M86.4,79
		c0,0.4-0.2,0.6-0.6,0.6s-0.6-0.2-0.6-0.6s0.2-0.6,0.6-0.6C86.2,78.4,86.4,78.6,86.4,79z"/>
</g>
</svg>
