<?xml version="1.0" encoding="utf-8"?>
<!-- Generator: Adobe Illustrator 24.1.0, SVG Export Plug-In . SVG Version: 6.00 Build 0)  -->
<svg version="1.1" id="Camada_1" xmlns="http://www.w3.org/2000/svg" xmlns:xlink="http://www.w3.org/1999/xlink" x="0px" y="0px"
	 viewBox="0 0 150 150" style="enable-background:new 0 0 150 150;" xml:space="preserve">
<style type="text/css">
	.st0{fill:#5FA9FF;}
	.st1{fill:#FFFFFF;}
</style>
<circle class="st0" cx="75" cy="75" r="75"/>
<g>
	<path class="st1" d="M51,40c-5.5,0-9.8,4.4-9.8,9.8s4.4,9.8,9.8,9.8s9.8-4.4,9.8-9.8C60.9,44.5,56.5,40,51,40z M56.3,49.8
		c0,2.9-2.4,5.3-5.3,5.3s-5.3-2.4-5.3-5.3c0-2.9,2.4-5.3,5.3-5.3C53.9,44.6,56.3,46.9,56.3,49.8z"/>
	<path class="st1" d="M105.8,67c-2.9-4.8-7.8-7.1-14.9-7.1c-3.9,0-7.4,1.2-10.3,3.3v-2.3H63.5v46.5h17.6v-23c0-7.1,2.1-8.5,5.6-8.5
		s4.5,1.9,4.5,8.8v22.7H108v-0.8h0.8V82.2C108.8,77.6,108.4,71.5,105.8,67z M76.6,84.5V103h-8.5V65.4h8v5.7h3.8l0.6-1.2
		c1.3-2.5,4.8-5.6,10.4-5.6c11.3,0,13.5,6.5,13.5,17.8V103h-8.5V84.8c0-4.4,0-13.5-9.1-13.5C76.6,71.4,76.6,81.2,76.6,84.5z"/>
	<path class="st1" d="M42.2,107.5h17.6V61H42.2V107.5z M55.2,65.4V103h-8.6V65.4H55.2z"/>
</g>
</svg>
