<?xml version="1.0" encoding="utf-8"?>
<!-- Generator: Adobe Illustrator 24.1.0, SVG Export Plug-In . SVG Version: 6.00 Build 0)  -->
<svg version="1.1" id="Camada_1" xmlns="http://www.w3.org/2000/svg" xmlns:xlink="http://www.w3.org/1999/xlink" x="0px" y="0px"
	 viewBox="0 0 150 150" style="enable-background:new 0 0 150 150;" xml:space="preserve">
<style type="text/css">
	.st0{fill:#9475D0;}
	.st1{fill:#FFFFFF;}
</style>
<circle class="st0" cx="75" cy="75" r="75"/>
<g>
	<circle class="st1" cx="80.4" cy="57.6" r="2"/>
	<path class="st1" d="M69.6,92.4c-1.1,0-2,0.9-2,2c0,1.1,0.9,2,2,2c1.1,0,2-0.9,2-2C71.6,93.3,70.7,92.4,69.6,92.4z"/>
	<path class="st1" d="M107.9,96.8c-2.7-1.5-5.9-2-8.7-2.5c-0.9-0.1-1.8-0.2-2.5-0.5c-0.2-0.1-1.1-0.4-3.1-1.4
		c0.1-0.4,0.2-0.7,0.1-1.2c-0.1-0.6-0.4-1.1-0.8-1.3c-0.9-0.7-2.1-0.5-2.8,0.4l0,0c-0.7-0.5-1.5-0.9-2.2-1.4l0.1-0.2
		c0.4-0.5,0.5-0.9,0.4-1.5c-0.1-0.6-0.4-1.1-0.8-1.3c-0.9-0.7-2.1-0.5-2.8,0.4l-0.2,0.6c-0.7-0.5-1.5-1.1-2.4-1.5
		c0.7-0.9,0.5-2.1-0.4-2.8c-0.5-0.4-0.9-0.5-1.5-0.4c-0.6,0.1-1.1,0.4-1.3,0.8L78.8,83c-2.1-1.5-3.4-2.6-4.5-3.4
		c-1.2-0.9-1.9-1.5-2.8-1.9c-1.5-0.7-2.9-0.4-4.1,0.7L64.7,81c-0.6,0.6-1.8,2.1-0.7,4.5c0.2,0.6,0.7,1.2,1.1,1.6
		c-2,0.8-4.1,1.2-6.4,1.1c-7.7-0.6-14.1-6-14.4-6.2c-0.5-0.4-1.2-0.6-1.8-0.5c-0.6,0.1-1.2,0.6-1.4,1.1L41,82.7
		c-0.2,0.5-0.5,0.9-0.7,1.5c-2.8,6.8-3.9,14.3-3.1,21.7c0,0,0,0,0,0.1v2.9c0,2.7,2.1,4.9,4.8,4.9h62.8c2.1,0,4.1-0.8,5.5-2.4
		c1.4-1.4,2.2-3.4,2.4-5.5l0,0C112.9,101.8,111.3,98.8,107.9,96.8z M84.2,100.8c0.7-0.9,0.5-2.1-0.4-2.8c-0.5-0.4-0.9-0.5-1.5-0.4
		c-0.6,0.1-1.1,0.4-1.3,0.8l-4.2,5.8H73l4.5-6c0.7-0.9,0.5-2.1-0.4-2.8c-0.5-0.4-0.9-0.5-1.5-0.4c-0.6,0.1-1.1,0.4-1.3,0.8l-6.4,8.5
		H65l3.7-4.8c0.4-0.5,0.5-0.9,0.4-1.5c-0.1-0.6-0.4-1.1-0.8-1.3c-0.5-0.4-0.9-0.5-1.5-0.4c-0.6,0.1-1.1,0.4-1.3,0.8l-5.4,7.2H41.2
		c-0.2-2.6-0.1-5.1,0.1-7.7h1.9c0.7,0,1.5,0.1,2.1,0.5c1.2,0.6,2.6,0.9,4.1,0.9c2.5,0,4.8-0.9,6.5-2.6l3.7-3.3
		c2.7,0,5.3-0.5,7.7-1.5l2.2-0.9c0.6-0.2,1.1-0.7,1.2-1.4c0.1-0.6,0-1.3-0.4-1.8c-0.2-0.4-0.6-0.7-0.8-0.9c-0.6-0.6-1.3-1.4-1.5-1.9
		l0,0l2.2-2.2c0.4,0.2,1.1,0.7,1.8,1.3c1.1,0.8,2.5,2,4.5,3.4l-1.1,1.5c-0.7,0.9-0.5,2.1,0.4,2.8c0.5,0.4,0.9,0.5,1.5,0.4
		c0.6-0.1,1.1-0.4,1.3-0.8l1.2-1.5c0.8,0.6,1.5,1.1,2.4,1.5L81,91.3c-0.4,0.5-0.5,0.9-0.4,1.5c0.1,0.6,0.4,1.1,0.8,1.3
		c0.5,0.4,0.9,0.5,1.5,0.4c0.6-0.1,1.1-0.4,1.3-0.8l1.2-1.5c0.8,0.5,1.5,1.1,2.2,1.4L87,94.5c-0.4,0.5-0.5,0.9-0.4,1.5
		c0.1,0.6,0.4,1.1,0.8,1.3c0.9,0.7,2.1,0.5,2.8-0.4l0.9-1.3c2.7,1.5,3.9,1.9,4.6,2.1l0,0c0.8,0.2,1.8,0.4,2.8,0.5
		c5.4,0.8,9.3,1.8,10.1,5.8H81.7L84.2,100.8z M53.3,92.4C53.2,92.4,53.2,92.4,53.3,92.4c-1.5,1.5-4.1,1.9-6,0.9
		c-1.2-0.6-2.6-0.9-4-0.9h-1.2c0.5-2,1.1-3.9,1.8-5.8c1.9,1.3,5.8,3.7,10.5,4.7L53.3,92.4z M108.3,108.1c-0.1,0.2-0.4,0.5-0.6,0.7
		c-0.7,0.7-1.6,1.2-2.7,1.2H42.2c-0.5,0-0.8-0.4-0.8-0.9v-0.9C49.2,108.1,96.5,108.1,108.3,108.1z"/>
	<path class="st1" d="M42.2,55.3c2.7,1.5,6,2,9,2.5c0.9,0.1,1.9,0.2,2.6,0.5c0.2,0,0.9,0.4,2.7,1.3c-0.2,0.4-0.4,0.8-0.2,1.3
		c0.1,0.6,0.4,1.1,0.8,1.3c0.5,0.4,0.9,0.5,1.5,0.4c0.6-0.1,1.1-0.4,1.3-0.8l0.1-0.1c0.7,0.5,1.5,0.9,2.2,1.5L62,63.2
		c-0.4,0.5-0.5,0.9-0.4,1.5c0.1,0.6,0.4,1.1,0.8,1.3c0.5,0.4,0.9,0.5,1.5,0.4c0.6-0.1,1.1-0.4,1.3-0.8l0.4-0.5
		c0.7,0.5,1.5,1.1,2.2,1.6v0.1c-0.4,0.5-0.5,0.9-0.4,1.5c0.1,0.6,0.4,1.1,0.8,1.3c0.5,0.4,0.9,0.5,1.5,0.4c0.6-0.1,1.1-0.4,1.3-0.8
		l0.1-0.1c1.8,1.3,3.1,2.4,4,3.1c1.5,1.2,2.4,1.8,3.2,2.2c0.6,0.2,1.1,0.4,1.6,0.4c0.9,0,1.8-0.4,2.5-1.1l2.6-2.6
		c0.6-0.6,1.8-2.1,0.7-4.5c-0.2-0.6-0.7-1.2-1.1-1.6c2-0.8,4.2-1.2,6.6-1.1c6.1,0.4,11.8,4,14.3,6c0.5,0.4,1.2,0.6,1.8,0.5
		c0.6-0.1,1.2-0.6,1.4-1.1c0-0.1,0.1-0.1,0.1-0.2c0,0,0-0.1,0.2-0.5c1.4-2.1,4.9-11.5,3.7-22.7c0,0,0,0,0-0.1v-2.9
		c0-2.7-2.1-4.9-4.8-4.9H44.9c-2.1,0-4.1,0.8-5.5,2.4c-1.5,1.5-2.4,3.4-2.4,5.5c0,0,0,0,0,0.1C37,50.2,38.7,53.3,42.2,55.3z
		 M41.6,44c0.1-0.2,0.4-0.5,0.6-0.7l0,0c0.7-0.7,1.6-1.2,2.7-1.2h62.8c0.5,0,0.8,0.4,0.8,0.9V44H41.6z M68.3,48l-2.5,3.3
		c-0.4,0.5-0.5,0.9-0.4,1.5c0.1,0.6,0.4,1.1,0.8,1.3c0.5,0.2,0.9,0.5,1.5,0.4c0.6-0.1,1.1-0.4,1.3-0.8l4.2-5.8c1.3,0,2.5,0,3.8,0
		l-4.5,6c-0.4,0.5-0.5,0.9-0.4,1.5c0.1,0.6,0.4,1.1,0.8,1.3c0.5,0.4,0.9,0.5,1.5,0.4c0.6-0.1,1.1-0.4,1.3-0.8l6.4-8.5h2.9l-3.5,4.8
		c-0.7,0.9-0.5,2.1,0.4,2.8c0.9,0.7,2.1,0.5,2.8-0.4l5.4-7.2h18.6c0.2,2.6,0.1,5.1-0.1,7.7h-2.1c-0.7,0-1.5-0.1-2.1-0.5
		c-3.4-1.6-8-0.9-10.6,1.6L90.7,60c-2.7,0-5.3,0.5-7.8,1.5l-2.2,0.9c-0.6,0.2-1.1,0.7-1.2,1.4c-0.1,0.6,0,1.3,0.4,1.8
		c0.2,0.4,0.6,0.7,0.8,0.9c0.6,0.7,1.3,1.4,1.5,1.9l0,0l-2.2,2.2c-0.6-0.4-1.6-1.2-2.7-2c-0.9-0.8-2.2-1.8-3.5-2.7l1.1-1.4
		c0.7-0.9,0.5-2.1-0.4-2.8c-0.5-0.4-0.9-0.5-1.5-0.4c-0.6,0.1-1.1,0.4-1.3,0.8l-1.2,1.5c-0.8-0.6-1.5-1.1-2.2-1.6l0.9-1.3
		c0.4-0.5,0.5-0.9,0.4-1.5c-0.1-0.6-0.4-1.1-0.8-1.3c-0.9-0.7-2.1-0.5-2.8,0.4l-1.1,1.4c-0.8-0.6-1.5-1.1-2.2-1.5l0.6-0.8
		c0.4-0.5,0.5-0.9,0.4-1.5s-0.4-1.1-0.8-1.3c-0.9-0.7-2.1-0.5-2.8,0.4L59,56.1c-2.5-1.4-3.7-1.8-4.2-1.9l0,0
		c-0.8-0.2-1.9-0.4-2.9-0.5c-2.6-0.4-5.4-0.8-7.7-2c-1.6-0.8-2.6-2.1-2.9-3.8C45.5,48,55.4,48,68.3,48z M54.6,54.7L54.6,54.7
		L54.6,54.7L54.6,54.7z M96.5,59.6c1.4-1.4,4.1-1.9,6-0.9c1.2,0.6,2.6,0.9,4,0.9h1.4c-0.5,2-1.1,4-1.9,5.9c-2.1-1.5-6-3.8-10.5-4.8
		L96.5,59.6z"/>
</g>
</svg>
