<?xml version="1.0" encoding="utf-8"?>
<!-- Generator: Adobe Illustrator 24.1.0, SVG Export Plug-In . SVG Version: 6.00 Build 0)  -->
<svg version="1.1" id="Camada_1" xmlns="http://www.w3.org/2000/svg" xmlns:xlink="http://www.w3.org/1999/xlink" x="0px" y="0px"
	 viewBox="0 0 150 150" style="enable-background:new 0 0 150 150;" xml:space="preserve">
<style type="text/css">
	.st0{fill:#00CFB9;}
	.st1{fill:#FFFFFF;}
</style>
<circle class="st0" cx="75" cy="75" r="75"/>
<g>
	<path class="st1" d="M114.4,81.5v-0.1L110.5,54c-0.1-0.7-0.5-1.1-1-1.5c-0.6-0.3-1.3-0.3-1.8-0.1l-18.1,7.3c-1,0.5-1.6,1.6-1.1,2.7
		c0.2,0.5,0.6,0.9,1.1,1.1c0.5,0.2,1,0.2,1.6,0l15.6-6.3l3.5,24.5c0,0.1,0,0.1,0,0.2c0.8,4.6-0.1,9.2-2.4,13.2
		c-2.6,4.6-6.9,7.9-12.1,9.2c-4.9,1.3-10,0.7-14.5-1.7c0.8-0.6,1.5-1.3,2.2-1.9l17.7-4.8c0.6-0.1,1-0.5,1.3-0.9
		c0.2-0.5,0.3-1,0.2-1.6c-0.1-0.6-0.5-1-0.9-1.3s-1-0.3-1.6-0.2l-12.4,3.3c1.1-1.9,2.1-4,2.7-6l12-3.2c0.6-0.1,1-0.5,1.3-0.9
		c0.2-0.5,0.3-1,0.2-1.6c-0.1-0.6-0.5-1-0.9-1.3c-0.5-0.2-1-0.3-1.6-0.2l-7.7,2.1l2.6-4.6l6.9-1.8c0.6-0.1,1-0.5,1.3-0.9
		c0.2-0.5,0.3-1,0.2-1.6c-0.1-0.6-0.5-1-0.9-1.3c-0.5-0.2-1-0.3-1.6-0.2l-3,0.8l2.6-4.6c0.2-0.5,0.3-1,0.2-1.6
		c-0.1-0.6-0.5-1-0.9-1.3c-1-0.6-2.3-0.2-2.8,0.8l-2.6,4.6l-0.8-3c-0.1-0.6-0.5-1-0.9-1.3c-0.5-0.2-1-0.3-1.6-0.2
		c-0.6,0.1-1,0.5-1.3,0.9c-0.2,0.5-0.3,1-0.2,1.6l1.8,6.9l-0.9,1.6c-0.2-4.3-1.5-8.7-3.8-12.4c-3.2-5.6-8.3-9.9-14.4-12.2l-6.9-2.8
		c-1-0.5-2.3,0.1-2.7,1.1c-0.5,1,0.1,2.3,1.1,2.7l6.8,2.7h0.1c5.1,1.9,9.6,5.7,12.3,10.5c3.2,5.6,4.1,12.1,2.4,18.2
		c-1.5,5.5-4.9,10.3-9.5,13.6l-2.2-3.8l5.5-20.5c0.1-0.6,0.1-1.1-0.2-1.6c-0.2-0.5-0.7-0.8-1.3-0.9c-1.1-0.3-2.3,0.3-2.5,1.5
		l-4.4,16.5l-4.9-8.5L71.1,69c0.1-0.6,0.1-1.1-0.2-1.6c-0.2-0.5-0.7-0.8-1.3-0.9c-1.1-0.3-2.3,0.3-2.5,1.5l-2.7,10.3l-3.6-6.4
		l2.3-8.4c0.3-1.1-0.3-2.3-1.5-2.5c-1.1-0.3-2.3,0.3-2.5,1.5l-1.3,4.4l-3.5-6.2c-0.2-0.5-0.7-0.8-1.3-0.9c-0.6-0.1-1.1-0.1-1.6,0.2
		c-0.5,0.2-0.8,0.7-0.9,1.3c-0.1,0.6-0.1,1.1,0.2,1.6l3.5,6.2l-4.4-1.3c-1.1-0.3-2.3,0.3-2.5,1.5c-0.3,1.1,0.3,2.3,1.5,2.5l8.4,2.3
		l3.6,6.4l-10.3-2.7c-1.1-0.3-2.3,0.3-2.5,1.5c-0.3,1.1,0.3,2.3,1.5,2.5l14.2,3.8l4.9,8.5l-16.5-4.4c-1.1-0.3-2.3,0.3-2.5,1.5
		c-0.3,1.1,0.3,2.3,1.5,2.5L71.7,99l2.2,3.8c-11.3,5.2-24.8,1.1-31.1-9.7C40,88.3,39,82.6,39.9,77c0-0.1,0-0.2,0-0.2l4.2-29.7
		l9.5,3.9c1,0.5,2.3-0.1,2.7-1.1c0.5-1-0.1-2.3-1.1-2.7l-12-4.9c-0.6-0.2-1.3-0.2-1.8,0.1s-0.9,0.9-1,1.5l-4.7,32.5
		c0,0.1,0,0.1,0,0.2c-1,6.4,0.2,13,3.4,18.6c5,8.7,14.4,14,24.5,14c4.2,0,8.4-1,12.3-2.8l1.6,2.8c0.3,0.7,1,1,1.8,1
		c0.3,0,0.7-0.1,1-0.2c0.5-0.2,0.8-0.7,0.9-1.3c0.1-0.5,0.1-0.9-0.1-1.3c3,1.3,6.3,1.9,9.5,1.9c2.1,0,4.2-0.2,6.3-0.8
		c6.2-1.7,11.4-5.6,14.6-11.2C114.2,92.4,115.2,86.8,114.4,81.5z"/>
	<g>
		<g>
			<g>
				<path class="st1" d="M61.1,50.1c-0.2-0.2-0.7-0.5-1-0.5c-0.5,0-0.8,0.1-1,0.5s-0.5,0.7-0.5,1c0,0.5,0.1,0.8,0.5,1.1
					c0.2,0.2,0.7,0.5,1,0.5c0.5,0,0.8-0.1,1-0.5c0.3-0.3,0.5-0.7,0.5-1.1C61.6,50.8,61.4,50.4,61.1,50.1z"/>
				<path class="st1" d="M60.1,53.2c-0.6,0-1-0.2-1.5-0.6c-0.3-0.3-0.6-0.9-0.6-1.5c0-0.6,0.2-1,0.6-1.5c0.3-0.3,0.9-0.6,1.5-0.6
					c0.6,0,1,0.2,1.5,0.6l0,0l0,0c0.3,0.3,0.6,0.9,0.6,1.5c0,0.6-0.2,1-0.6,1.5C61.1,53,60.5,53.2,60.1,53.2z M60.1,50.1
					c-0.2,0-0.6,0.1-0.7,0.3c-0.2,0.2-0.3,0.5-0.3,0.7s0.1,0.6,0.3,0.7c0.2,0.2,0.5,0.3,0.7,0.3c0.2,0,0.6-0.1,0.7-0.3
					c0.2-0.2,0.3-0.5,0.3-0.7c0-0.2-0.1-0.6-0.3-0.7l0,0C60.5,50.2,60.3,50.1,60.1,50.1z"/>
			</g>
		</g>
	</g>
	<g>
		<g>
			<g>
				<path class="st1" d="M103.7,63.5L103.7,63.5c-0.5-0.7-1.5-0.8-2.2-0.3c-0.7,0.5-0.8,1.5-0.3,2.2l0,0c0.3,0.5,0.8,0.7,1.3,0.7
					c0.3,0,0.6-0.1,0.9-0.3C104.1,65.2,104.3,64.1,103.7,63.5z"/>
				<path class="st1" d="M102.5,66.4c-0.7,0-1.3-0.3-1.7-0.8c-0.3-0.5-0.5-1-0.3-1.6c0.1-0.6,0.3-1,0.8-1.4c0.5-0.3,1-0.5,1.6-0.3
					c0.6,0.1,1,0.3,1.4,0.8l0,0c0.7,0.9,0.5,2.2-0.5,2.8C103.4,66.3,102.9,66.4,102.5,66.4z M102.5,63.5c-0.2,0-0.5,0.1-0.6,0.2
					c-0.2,0.1-0.3,0.3-0.3,0.7c0,0.2,0,0.6,0.2,0.7c0.2,0.2,0.5,0.5,0.8,0.5c0.2,0,0.5-0.1,0.6-0.2c0.5-0.3,0.6-0.9,0.2-1.4l0,0
					c-0.1-0.2-0.3-0.3-0.7-0.3C102.6,63.5,102.6,63.5,102.5,63.5z"/>
			</g>
		</g>
	</g>
</g>
</svg>
