<?xml version="1.0" encoding="utf-8"?>
<!-- Generator: Adobe Illustrator 24.1.0, SVG Export Plug-In . SVG Version: 6.00 Build 0)  -->
<svg version="1.1" id="Camada_1" xmlns="http://www.w3.org/2000/svg" xmlns:xlink="http://www.w3.org/1999/xlink" x="0px" y="0px"
	 viewBox="0 0 150 150" style="enable-background:new 0 0 150 150;" xml:space="preserve">
<style type="text/css">
	.st0{fill:#00CFB9;}
	.st1{fill:#FFFFFF;}
</style>
<circle class="st0" cx="75" cy="75" r="75"/>
<g>
	<path class="st1" d="M66.8,95.3H50.2c-1.3,0-2.2,1-2.2,2.2c0,1.3,1,2.2,2.2,2.2h16.6c1.3,0,2.2-1,2.2-2.2
		C69,96.3,68.1,95.3,66.8,95.3z"/>
	<path class="st1" d="M91.6,95.3H75c-1.3,0-2.2,1-2.2,2.2c0,1.3,1,2.2,2.2,2.2h16.6c1.3,0,2.2-1,2.2-2.2
		C93.8,96.3,92.9,95.3,91.6,95.3z"/>
	<path class="st1" d="M91.6,54.1H50.2c-1.3,0-2.2,1-2.2,2.2c0,1.3,1,2.2,2.2,2.2h41.4c1.3,0,2.2-1,2.2-2.2
		C93.8,55.2,92.9,54.1,91.6,54.1z"/>
	<path class="st1" d="M91.6,62.3H75c-1.3,0-2.2,1-2.2,2.2c0,1.3,1,2.2,2.2,2.2h16.6c1.3,0,2.2-1,2.2-2.2
		C93.8,63.4,92.9,62.3,91.6,62.3z"/>
	<path class="st1" d="M91.6,70.6H75c-1.3,0-2.2,1-2.2,2.2c0,1.3,1,2.2,2.2,2.2h16.6c1.3,0,2.2-1,2.2-2.2
		C93.8,71.6,92.9,70.6,91.6,70.6z"/>
	<path class="st1" d="M91.6,78.8H75c-1.3,0-2.2,1-2.2,2.2c0,1.3,1,2.2,2.2,2.2h16.6c1.3,0,2.2-1,2.2-2.2
		C93.8,79.9,92.9,78.8,91.6,78.8z"/>
	<path class="st1" d="M91.6,87.1H75c-1.3,0-2.2,1-2.2,2.2c0,1.3,1,2.2,2.2,2.2h16.6c1.3,0,2.2-1,2.2-2.2
		C93.8,88.1,92.9,87.1,91.6,87.1z"/>
	<path class="st1" d="M66.8,87.1H50.2c-1.3,0-2.2,1-2.2,2.2c0,1.3,1,2.2,2.2,2.2h16.6c1.3,0,2.2-1,2.2-2.2
		C69,88.1,68.1,87.1,66.8,87.1z"/>
	<path class="st1" d="M66.8,62.3H50.2c-1.3,0-2.2,1-2.2,2.2v16.6c0,1.3,1,2.2,2.2,2.2h16.6c1.3,0,2.2-1,2.2-2.2V64.7
		C69,63.4,68.1,62.3,66.8,62.3z M64.5,66.9v12.2H52.4V66.9H64.5z"/>
	<path class="st1" d="M108.1,52.5h-4.3v-4.3c0-2.1-1.7-3.9-3.9-3.9H41.9c-2.1,0-3.9,1.7-3.9,3.9v52.7c0,4.8,3.9,8.9,8.9,8.9h56.2
		c4.8,0,8.9-3.9,8.9-8.9V56.5C112,54.2,110.2,52.5,108.1,52.5z M104,103.1c1.3,0,2.2-1,2.2-2.2c0-1.3-1-2.2-2.2-2.2
		c-0.1,0-0.3-0.1-0.3-0.3V57h3.7v43.8c0,2.4-2,4.3-4.3,4.3H46.9c-2.4,0-4.3-2-4.3-4.3v-52h56.7v49.6C99.2,101,101.4,103.1,104,103.1
		z"/>
</g>
</svg>
