<?xml version="1.0" encoding="utf-8"?>
<!-- Generator: Adobe Illustrator 24.1.0, SVG Export Plug-In . SVG Version: 6.00 Build 0)  -->
<svg version="1.1" id="Camada_1" xmlns="http://www.w3.org/2000/svg" xmlns:xlink="http://www.w3.org/1999/xlink" x="0px" y="0px"
	 viewBox="0 0 150 150" style="enable-background:new 0 0 150 150;" xml:space="preserve">
<style type="text/css">
	.st0{fill:#5FA9FF;}
	.st1{fill:#FFFFFF;}
</style>
<circle class="st0" cx="75" cy="75" r="75"/>
<g>
	
		<rect x="57.6" y="86.1" transform="matrix(0.8944 -0.4472 0.4472 0.8944 -33.1451 35.9093)" class="st1" width="3.9" height="4.2"/>
	
		<rect x="89.9" y="86.3" transform="matrix(0.4472 -0.8944 0.8944 0.4472 -28.0623 131.0679)" class="st1" width="4.2" height="3.9"/>
	<path class="st1" d="M98.3,71.1L98.3,71.1l-10.4-5.2l-3.5-3.5c0.9-1.6,1.4-3.3,1.4-5.1c2.6-0.8,4.4-3.3,4.4-6v-5.9
		C90.2,36.8,83.4,30,75,30s-15.2,6.8-15.2,15.2v5.9c0,2.7,1.8,5.2,4.4,6c0,1.8,0.5,3.5,1.4,5.1L62,65.8l-9.9,5l-0.3,0.2l0,0
		l-8.2,4.1v40h3.9V77.6l6.1-3.1l2.8,5.7l-5.9,4.4l13.4,29.9c0.3,0.8,1.1,1.3,1.9,1.3c0.2,0,0.3,0,0.5-0.1c1-0.2,1.7-1.1,1.6-2.2
		l-2.3-35.6l2.4-0.7l2,4L68.6,106l1.6,9.6l3.8-0.7l-1.5-9.1l1.4-23h2.3l1.4,23.1L76,115l3.8,0.7l1.6-9.6l-1.5-24.8l2-4l2.4,0.6
		L82,113.7c-0.1,1,0.6,1.9,1.6,2.2c0.2,0,0.3,0.1,0.6,0.1c0.8,0,1.5-0.5,1.9-1.1l4.7-9.3c1,0.7,2.3,1,3.5,1c3.5,0,6.4-2.8,6.4-6.4
		c0-2.6-1.7-5-4.2-5.9l4.8-9.6l-7.4-4.4l2.8-5.6l6.1,3.1v37.8h3.9V75.2L98.3,71.1z M88.7,81.5l7.4,4.4L92,94l0,0
		c-0.1,0-0.1,0-0.2,0.1h-0.1c-0.2,0.1-0.5,0.2-0.7,0.3c0,0.1-0.1,0.1-0.1,0.2c-0.2,0.1-0.5,0.2-0.6,0.5c-0.1,0.1-0.1,0.1-0.2,0.2
		c-0.2,0.1-0.3,0.3-0.6,0.5l0,0c-0.1,0.1-0.1,0.1-0.2,0.2c-0.1,0.2-0.2,0.3-0.5,0.6v0.1c0,0.1-0.1,0.1-0.1,0.2
		c-0.1,0.2-0.2,0.5-0.3,0.7v0.1c0,0.1-0.1,0.1-0.1,0.2c-0.1,0.2-0.1,0.5-0.2,0.8c0,0,0,0,0,0.1c0,0.1,0,0.1,0,0.2
		c-0.1,0.3-0.1,0.8-0.1,1.1l0,0c0,0.3,0,0.8,0.1,1.3c0,0.1,0.1,0.2,0.1,0.3v0.1c0,0,0,0,0,0.1l-1.8,3.6l2.2-35l4.6,2.3L88.7,81.5z
		 M94.2,102.6c-0.9,0-1.8-0.6-2.3-1.4l0,0c-0.2-0.3-0.2-0.8-0.2-1.1c0-1.3,0.9-2.3,2-2.5c0.2,0,0.3,0,0.5,0c1.4,0,2.5,1.1,2.5,2.5
		S95.6,102.6,94.2,102.6z M78.2,76.2l-1.4,2.7h-3.5l-1.4-2.6l3.2-0.8L78.2,76.2z M71.3,72.4L65.5,74l-0.3-5.8l1-1L71.3,72.4z
		 M83.9,39.3c-1.3-1.3-2.8-1.8-4.4-1.8h-0.8l-0.6,0.6c-0.8,0.8-1.9,1.3-3.1,1.3c-1.1,0-2.3-0.5-3.1-1.3l-0.6-0.6h-0.8
		c-3.5,0-6.4,2.8-6.4,6.4v1.4c-0.2,0.1-0.5,0.1-0.6,0.2v-0.1C63.6,39.1,68.7,34,75,34s11.4,5.1,11.4,11.4v0.1
		c-0.2-0.1-0.5-0.1-0.6-0.2v-1.4C85.8,42.2,85.1,40.6,83.9,39.3z M80.4,61.4L80.4,61.4c-1.4,1.7-3.3,2.7-5.5,2.7
		c-1.8,0-3.6-0.7-4.9-2c-0.2-0.2-0.3-0.3-0.5-0.6l-0.1-0.1c-0.9-1.3-1.5-2.7-1.5-4.2V43.9c0-1.1,0.8-2.2,1.9-2.5
		c2.8,2.3,7.3,2.3,10.1,0c0.5,0.1,0.8,0.3,1.1,0.7c0.5,0.5,0.8,1.1,0.8,1.8v13.3C81.9,58.8,81.5,60.3,80.4,61.4z M72,67.5L72,67.5
		L72,67.5c1,0.3,2,0.5,3,0.5c0.1,0,0.2,0,0.5,0c0.1,0,0.1,0,0.2,0h0.1c0.1,0,0.2,0,0.3,0c0.2,0,0.3,0,0.6-0.1h0.1
		c0.1,0,0.3,0,0.5-0.1c0.2,0,0.3-0.1,0.6-0.1c0.1,0,0.3-0.1,0.5-0.1c0,0,0,0,0.1,0L75,70.7l-3.3-3.3C71.8,67.4,71.9,67.5,72,67.5z
		 M85.8,49.6c0.3,0.5,0.6,1,0.6,1.7c0,0.6-0.2,1.3-0.6,1.7V49.6z M63.6,51.3c0-0.6,0.2-1.3,0.6-1.7v3.3
		C63.8,52.4,63.6,51.8,63.6,51.3z M84.9,68.2l-0.3,5.7l-5.8-1.5l5.1-5.1L84.9,68.2z M61.1,81.4l-4.3-8.6l4.6-2.3l2.2,34l-8.4-18.7
		L61.1,81.4z"/>
</g>
</svg>
