<?xml version="1.0" encoding="utf-8"?>
<!-- Generator: Adobe Illustrator 24.1.0, SVG Export Plug-In . SVG Version: 6.00 Build 0)  -->
<svg version="1.1" id="Camada_1" xmlns="http://www.w3.org/2000/svg" xmlns:xlink="http://www.w3.org/1999/xlink" x="0px" y="0px"
	 viewBox="0 0 150 150" style="enable-background:new 0 0 150 150;" xml:space="preserve">
<style type="text/css">
	.st0{fill:#FF8F79;}
	.st1{fill:#FFFFFF;}
</style>
<circle class="st0" cx="75" cy="75" r="75"/>
<path class="st1" d="M105.1,40.9c-0.6-0.4-1.4-0.5-2-0.4L61.5,53.7c-0.9,0.3-1.5,1.2-1.5,2.2v40.3c-2.2-1.4-4.9-2.2-7.7-2.2
	c-3.2,0-6.1,0.9-8.4,2.7c-2.4,1.9-3.8,4.3-3.8,7.2c0,2.8,1.4,5.2,3.8,7.2c2.3,1.7,5.2,2.7,8.4,2.7c3.2,0,6.1-0.9,8.4-2.7
	c2.4-1.9,3.8-4.3,3.8-7.2V71.6l36.9-11.8v23c-2.2-1.4-4.9-2.2-7.7-2.2c-3.2,0-6.1,0.9-8.4,2.7c-2.4,1.9-3.8,4.3-3.8,7.2
	c0,2.7,1.4,5.2,3.8,7.2c2.3,1.7,5.2,2.7,8.4,2.7c3.2,0,6.1-0.9,8.4-2.7c2.4-1.9,3.8-4.3,3.8-7.2V42.7
	C106,42.1,105.6,41.3,105.1,40.9z M101.4,45.9V55L64.4,66.7v-9.1L101.4,45.9z M101.4,90.5c0,2.8-3.5,5.1-7.7,5.1
	c-4.1,0-7.7-2.4-7.7-5.1c0-2.7,3.5-5.1,7.7-5.1C97.9,85.3,101.4,87.7,101.4,90.5z M59.8,103.7c0,2.8-3.5,5.1-7.7,5.1
	c-4.1,0-7.7-2.4-7.7-5.1c0-2.7,3.5-5.1,7.7-5.1S59.8,100.9,59.8,103.7z"/>
</svg>
