<?xml version="1.0" encoding="utf-8"?>
<!-- Generator: Adobe Illustrator 24.1.0, SVG Export Plug-In . SVG Version: 6.00 Build 0)  -->
<svg version="1.1" id="Camada_1" xmlns="http://www.w3.org/2000/svg" xmlns:xlink="http://www.w3.org/1999/xlink" x="0px" y="0px"
	 viewBox="0 0 150 150" style="enable-background:new 0 0 150 150;" xml:space="preserve">
<style type="text/css">
	.st0{fill:#FF8F79;}
	.st1{fill:#FFFFFF;}
</style>
<circle class="st0" cx="75" cy="75" r="75"/>
<g>
	<path class="st1" d="M100.6,58.4c-0.5-0.5-1.1-0.7-1.6-0.7h-0.8c-0.2-3.7-2.6-6.9-6-8.2c0-0.2,0-0.5,0-0.8c-0.4-4.4-3.6-8-7.8-8.8
		c-1.2-3.7-4.4-6.6-8.5-6.9c-2.6-0.2-5,0.6-7,2.2c-1.5,1.3-2.6,2.8-3,4.7c-4.2,0.8-7.5,4.3-7.8,8.8c0,0.2,0,0.5,0,0.8
		c-3.4,1.4-5.7,4.6-6,8.2h-0.8c-0.6,0-1.2,0.2-1.6,0.7c-0.5,0.5-0.7,1.1-0.6,1.6l2.7,44.5c0.2,3.5,3.2,6.3,6.8,6.3h33.5
		c3.5,0,6.6-2.8,6.8-6.3l2.7-44.5C101.2,59.5,101.1,58.9,100.6,58.4z M60.6,53.4c0.6-0.1,1.2-0.5,1.5-0.9c0.4-0.5,0.5-1.2,0.4-1.8
		c-0.1-0.5-0.1-1.1-0.1-1.5c0.2-2.7,2.5-4.8,5.3-4.8l0,0c1.2,0,2.1-0.8,2.2-2c0.2-2.8,2.8-4.9,5.6-4.7c2.6,0.2,4.6,2.2,4.8,4.7
		c0.1,1.2,1.1,2,2.2,2l0,0c2.7,0,5,2.1,5.3,4.8c0,0.5,0,1.1-0.1,1.5c-0.1,0.6,0,1.2,0.4,1.8c0.4,0.5,0.8,0.8,1.5,0.9
		c2.2,0.4,4,2.2,4.2,4.4H56.3C56.6,55.5,58.4,53.8,60.6,53.4z M93.9,104.4c-0.1,1.2-1.1,2.1-2.2,2.1h-5.4l0.6-8.9
		c0.1-1.3-0.8-2.3-2.1-2.3c-1.3-0.1-2.3,0.8-2.3,2.1l-0.6,9.1h-4.7v-9.2c0-1.3-1.1-2.2-2.2-2.2c-1.3,0-2.2,1.1-2.2,2.2v9.2h-4.7
		l-0.6-9.1c-0.1-1.3-1.2-2.2-2.3-2.1c-1.3,0.1-2.2,1.2-2.1,2.3l0.6,8.9h-5.4c-1.2,0-2.2-0.9-2.2-2.1l-2.6-42.1h7.5l0.5,6.9
		c0.1,1.2,1.1,2.1,2.2,2.1h0.1c1.3-0.1,2.2-1.2,2.1-2.3l-0.4-6.6h7.4v5.3c0,1.3,1.1,2.2,2.2,2.2c1.3,0,2.2-1.1,2.2-2.2v-5.3h7.4
		L84.3,69c-0.1,1.3,0.8,2.3,2.1,2.3h0.1c1.2,0,2.2-0.9,2.2-2.1l0.5-6.9h7.5L93.9,104.4z"/>
	<path class="st1" d="M82.5,72.7h-15c-3.7,0-6.8,3-6.8,6.8v6c0,3.7,3,6.8,6.8,6.8h15c3.7,0,6.8-3,6.8-6.8v-6
		C89.3,75.8,86.2,72.7,82.5,72.7z M84.7,85.5c0,1.3-1.1,2.2-2.2,2.2h-15c-1.3,0-2.2-1.1-2.2-2.2v-6c0-1.3,1.1-2.2,2.2-2.2h15
		c1.3,0,2.2,1.1,2.2,2.2V85.5z"/>
</g>
</svg>
