<?xml version="1.0" encoding="utf-8"?>
<!-- Generator: Adobe Illustrator 24.1.0, SVG Export Plug-In . SVG Version: 6.00 Build 0)  -->
<svg version="1.1" id="Camada_1" xmlns="http://www.w3.org/2000/svg" xmlns:xlink="http://www.w3.org/1999/xlink" x="0px" y="0px"
	 viewBox="0 0 150 150" style="enable-background:new 0 0 150 150;" xml:space="preserve">
<style type="text/css">
	.st0{fill:#FF8F79;}
	.st1{fill:#FFFFFF;}
</style>
<circle class="st0" cx="75" cy="75" r="75"/>
<g>
	<path class="st1" d="M61.8,53.6L61.8,53.6c1.7,0,3.2-0.6,4.3-1.7c1.1-1.1,1.8-2.6,1.8-4.3c0-4.1-2.5-7.8-6.4-9.2l-0.2-0.1
		c-0.8-0.3-1.6-0.1-2.2,0.3c-0.6,0.6-0.9,1.4-0.7,2.2c0.1,0.7-0.5,1.7-1.1,2.9c-0.1,0.2-0.2,0.5-0.5,0.7c-0.2,0.3-0.3,0.6-0.6,0.9
		l0,0c-0.3,0.8-0.5,1.6-0.5,2.4C55.7,50.8,58.5,53.6,61.8,53.6z M60.1,47.5c0-0.2,0-0.5,0.1-0.7l0,0c0-0.1,0.1-0.2,0.1-0.3l0.1-0.1
		c0.1-0.2,0.2-0.5,0.3-0.7l0,0c0.3-0.6,0.8-1.3,1.1-2.1c0.9,1,1.5,2.4,1.5,3.9c0,0.5-0.2,0.9-0.5,1.3c-0.3,0.3-0.8,0.5-1.3,0.5
		C60.9,49.2,60.1,48.4,60.1,47.5z"/>
	<path class="st1" d="M58.1,92.6c-1.5-2.1-2.6-4.3-3.3-6.8c-0.3-1.1-1.5-1.8-2.6-1.6c-1.1,0.3-1.8,1.5-1.5,2.6c0.8,3,2.2,5.8,4,8.3
		c0.5,0.6,1,0.9,1.7,0.9c0.5,0,0.9-0.1,1.3-0.5C58.6,94.9,58.8,93.5,58.1,92.6L58.1,92.6z"/>
	<path class="st1" d="M54.1,80.3c0-1.1-1-2.2-2.2-2.2c-1.1,0-2.2,1-2.2,2.2c0,1.1,1,2.2,2.2,2.2C53.1,82.4,54.1,81.4,54.1,80.3z"/>
	<path class="st1" d="M86.6,78.9c-0.2-0.7-0.7-1.3-1-1.9c-0.3-0.6-0.7-1.1-1-1.7c-1.9-3.2-3.8-6.2-3.1-9.2c0.2-0.8-0.1-1.6-0.7-2.2
		c-0.6-0.6-1.5-0.7-2.2-0.3c-2.3,0.9-4.4,2.7-5.8,5.1c-0.1,0.2-0.2,0.5-0.3,0.7c-1.7-1.4-3.4-1.5-3.7-1.6c-0.8-0.1-1.5,0.2-1.9,0.9
		c-0.5,0.6-0.6,1.5-0.2,2.2c0,0,1.3,3.1-0.3,6.5c-0.2,0.3-0.5,0.8-0.6,1.1c0,0,0,0.1-0.1,0.1c-0.7,1.5-1,3.2-1,4.9
		c0,1.4,0.2,2.7,0.8,4.1c0,0.1,3.3,7.3,10.5,7.3c9.6,0,11.8-8.4,11.8-11.4C87.6,82,87.2,80.4,86.6,78.9L86.6,78.9z M79.7,89.7
		c-0.3,0.2-0.7,0.3-1.1,0.6h-0.1c-0.8,0.2-1.6,0.3-2.4,0.3c-4,0-7.2-3.2-7.2-7.2c0-1,0.2-2.1,0.7-3.1l-0.5-0.2l0.5,0.2
		c0.1-0.2,0.2-0.6,0.5-0.8c0-0.1,0.1-0.1,0.1-0.2c0.7-1.4,1.1-2.9,1.3-4.3c0,0.1,0,0.1,0.1,0.2c0.5,1.1,1.6,1.7,2.7,1.4
		c1.1-0.3,1.7-1.5,1.4-2.6c-0.1-0.6,0.5-2.4,1.8-4c0.6,2.9,2.2,5.4,3.5,7.8c0.3,0.6,0.7,1.1,1,1.7c0,0,0,0.1,0.1,0.1
		c0.2,0.3,0.5,0.8,0.7,1.3c0.3,0.9,0.6,1.8,0.6,2.9C83.2,86,81.9,88.4,79.7,89.7z"/>
	<path class="st1" d="M106.7,48.8c0.2-0.6,0.1-1.1-0.2-1.7c-0.3-0.6-0.8-0.9-1.4-1c-0.1,0-4-0.9-8.4,0.3c-2.9,0.8-6.7,2.9-9.7,7.5
		c-0.7-1.8-1.6-3.5-2.6-5.1c-3.2-4.9-7.9-8.6-13.7-10.6c-0.8-0.2-1.6-0.1-2.3,0.5c-0.6,0.6-0.8,1.4-0.6,2.2c1.8,6,1,11.8-2.5,17.1
		c-1.7,2.6-3.7,4.6-4.9,5.6c-1.4-1.3-3.3-3.9-2.9-9.1c0.1-0.8-0.3-1.7-1.1-2.1c-0.8-0.5-1.7-0.3-2.4,0.1c-3.7,2.7-6.6,6.8-8.4,12.2
		c-1.6,4.7-2.5,10-2.5,15.5c0,7.9,2.9,15.4,8.2,21.2l0.1,0.1c4.3,5,13.3,10.3,25.8,10.3c6.7,0,13-2.9,19.5-8.8
		c1.8-1.7,3.5-3.7,4.9-5.8c0-0.1,0.1-0.1,0.1-0.2c0.1-0.1,0.1-0.2,0.2-0.3c0.1-0.1,0.1-0.2,0.2-0.5c0.1-0.1,0.1-0.2,0.2-0.3
		c0.1-0.1,0.1-0.2,0.2-0.3c0-0.1,0.1-0.2,0.1-0.2c3.5-6.8,4.1-15.1,1.4-22.4c-1.8-4.8-1.9-10.2-0.5-15.1L106.7,48.8z M100.2,74.6
		c2.3,6.2,1.9,12.9-1,18.7c-1.4,2.4-8.9,14.5-21.8,14.5c-14.1,0-21.6-7.6-23.5-9.9c0-0.1-0.1-0.1-0.1-0.1c-4-4.9-6.2-11.1-6.2-17.3
		c0-8.4,2.2-16.2,5.9-21c1.1,6.6,6,8.9,6.2,9c0.7,0.3,1.5,0.2,2.2-0.2c0.1-0.1,4-2.7,7.1-7.5c3.3-5.1,4.7-10.8,4-16.5
		c8.1,4.6,10.8,12.7,11.2,16.9c0.1,1,0.9,1.8,1.9,1.9c1,0.1,2.1-0.6,2.3-1.5c3-9.7,9.4-11.3,13.3-11.3l-2.1,6.6
		C97.8,62.5,98.1,68.9,100.2,74.6z"/>
</g>
</svg>
