<?xml version="1.0" encoding="utf-8"?>
<!-- Generator: Adobe Illustrator 24.1.0, SVG Export Plug-In . SVG Version: 6.00 Build 0)  -->
<svg version="1.1" id="Camada_1" xmlns="http://www.w3.org/2000/svg" xmlns:xlink="http://www.w3.org/1999/xlink" x="0px" y="0px"
	 viewBox="0 0 150 150" style="enable-background:new 0 0 150 150;" xml:space="preserve">
<style type="text/css">
	.st0{fill:#5FA9FF;}
	.st1{fill:#FFFFFF;}
</style>
<circle class="st0" cx="75" cy="75" r="75"/>
<g>
	<path class="st1" d="M112.3,67.3L112.3,67.3L112.3,67.3c-0.4-0.4-0.8-0.6-1.4-0.6h-3.5c-1.1,0-2,0.8-2,2c0,1.1,0.8,2,2,2h1.6v8.8
		h-3.6c-0.9,0-1.8,0.7-1.9,1.5c-0.7,3.3-2,6.4-3.9,9.4c-0.5,0.8-0.4,1.8,0.2,2.5l2.6,2.6l-6.2,6.2L93.7,99c-0.6-0.6-1.6-0.7-2.5-0.2
		c-2.8,1.9-6,3.2-9.4,3.9c-0.9,0.2-1.5,0.9-1.5,1.9v3.5h-8.8v-3.5c0-0.9-0.6-1.8-1.5-1.9c-3.3-0.7-6.4-2-9.4-3.9
		c-0.8-0.5-1.8-0.4-2.5,0.2l-2.6,2.6l-6.2-6.2l2.6-2.6c0.6-0.6,0.7-1.6,0.2-2.5c-1.9-2.8-3.2-6-3.9-9.4c-0.2-0.9-0.9-1.5-1.9-1.5
		h-3.6v-8.8h1.6c1.1,0,2-0.8,2-2s-0.8-2-2-2H41c-1.1,0-2,0.8-2,2v12.8c0,1.1,0.8,2,2,2h4c0.7,2.7,1.8,5.3,3.2,7.7L45.3,94
		c-0.4,0.4-0.6,0.8-0.6,1.4c0,0.5,0.2,1.1,0.6,1.4l9,9c0.7,0.7,2,0.7,2.7,0l2.8-2.8c2.5,1.4,5,2.5,7.7,3.2v4c0,1.1,0.8,2,2,2h12.8
		c1.1,0,2-0.8,2-2v-4c2.7-0.7,5.3-1.8,7.7-3.2l2.8,2.8c0.7,0.7,2,0.7,2.7,0l9-9c0.4-0.4,0.6-0.8,0.6-1.4c0-0.5-0.2-1.1-0.6-1.4
		l-2.8-2.8c1.4-2.5,2.5-5,3.2-7.7h4c1.1,0,2-0.8,2-2V68.7C112.9,68.1,112.8,67.6,112.3,67.3z"/>
	<path class="st1" d="M74.5,49.7c-0.4-0.4-0.8-0.6-1.4-0.6c-0.6,0-1.1,0.2-1.4,0.6c-0.4,0.4-0.6,0.8-0.6,1.4c0,0.5,0.2,1.1,0.6,1.4
		c0.4,0.4,0.8,0.6,1.4,0.6c0.6,0,1.1-0.2,1.4-0.6c0.4-0.4,0.6-0.8,0.6-1.4C75.1,50.5,74.9,50.1,74.5,49.7L74.5,49.7z"/>
	<path class="st1" d="M51.1,71.6c-0.4,0.9-0.5,1.9-0.5,2.8c0,4.9,4,8.9,8.9,8.9c0.1,0,0.2,0,0.5,0c1.3,2.8,4.1,4.6,7.3,4.6
		c4.3,0,8-3.5,8-8V56.1c0-0.5-0.2-1.1-0.6-1.4c-0.4-0.4-0.8-0.6-1.4-0.6c-1.1,0-2,0.8-2,2v23.8c0,2.2-1.9,4.1-4.1,4.1
		c-1.4,0-2.7-0.7-3.4-1.9c2.3-1.3,4-3.6,4.4-6.3c1.8-0.7,2.9-2.5,2.9-4.4c0-2.7-2.1-4.8-4.8-4.8c-2.7,0-4.8,2.1-4.8,4.8
		c0,1.8,1.1,3.5,2.7,4.3c-0.6,2.1-2.6,3.6-4.8,3.6c-2.7,0-5-2.2-5-5c0-0.9,0.2-1.9,0.8-2.7c1.2-0.4,2.2-0.9,3-1.9
		c0.4-0.4,0.6-0.8,0.6-1.4c0-0.5-0.2-1.1-0.6-1.4c-0.4-0.4-0.8-0.6-1.4-0.6c-0.5,0-1.1,0.2-1.4,0.6c-0.6,0.6-1.3,0.9-2.1,0.9
		c-1.5,0-2.8-1.3-2.8-2.8v-7.7c0-1.5,1.3-2.8,2.8-2.8c1.1,0,2,0.6,2.5,1.5c-1.5,0.8-2.5,2.5-2.5,4.2c0,2.7,2.1,4.8,4.8,4.8
		c2.7,0,4.8-2.1,4.8-4.8c0-2-1.2-3.7-3-4.4c-0.5-1.9-1.8-3.5-3.5-4.3c-0.4-0.5-0.5-0.9-0.5-1.5c0-1.5,1.2-2.7,2.7-2.7
		c0.2,0,0.5,0,0.7,0.1c0.1,0.8,0.5,1.6,0.9,2.3c-0.1,0.5-0.1,0.8-0.1,1.3c0,2.7,2.1,4.8,4.8,4.8s4.8-2.1,4.8-4.8s-2.1-4.8-4.8-4.8
		c-0.6,0-1.2,0.1-1.8,0.4c0-0.1,0-0.1,0-0.2V46c0-2.2,1.8-4,4-4c2.2,0,4,1.8,4,4c0,1.1,0.8,2,2,2c1.1,0,2-0.8,2-2
		c0-4.3-3.5-7.8-7.8-7.8c-3.4,0-6.4,2.2-7.5,5.4c-0.4,0-0.7-0.1-0.9-0.1c-3.6,0-6.6,2.9-6.6,6.6c0,0.4,0,0.6,0.1,0.9
		c-3.3,0.7-5.6,3.4-5.6,6.7v7.7C46.7,68.1,48.5,70.5,51.1,71.6z M65.6,71.5c0-0.5,0.4-0.9,0.9-0.9c0.6,0,0.9,0.4,0.9,0.9
		c0,0.5-0.4,0.9-0.9,0.9C65.9,72.4,65.6,71.9,65.6,71.5z M58.2,61.3c-0.5,0-0.9-0.4-0.9-0.9c0-0.5,0.4-0.9,0.9-0.9
		c0.5,0,0.9,0.4,0.9,0.9S58.8,61.3,58.2,61.3z M64.1,51.1c0-0.5,0.4-0.9,0.9-0.9c0.5,0,0.9,0.4,0.9,0.9c0,0.5-0.4,0.9-0.9,0.9
		C64.4,51.9,64.1,51.6,64.1,51.1z"/>
	<path class="st1" d="M78.8,66.2c1.1,0,2-0.8,2-2V46c0-2.2,1.8-4,4-4c2.2,0,4,1.8,4,4v0.4c0,0.1,0,0.2,0,0.4c-0.6-0.2-1.3-0.5-2-0.5
		c-2.7,0-4.8,2.1-4.8,4.8c0,2.7,2.1,4.8,4.8,4.8c2.7,0,4.8-2.1,4.8-4.8c0-0.4,0-0.7-0.1-1.1c0.6-0.7,0.9-1.6,1.1-2.6
		c0.2-0.1,0.5-0.1,0.7-0.1c1.5,0,2.7,1.2,2.7,2.7c0,0.6-0.1,1.1-0.5,1.5c-1.8,0.9-3,2.5-3.5,4.3c-1.9,0.7-3,2.5-3,4.4
		c0,2.7,2.1,4.8,4.8,4.8c2.7,0,4.8-2.1,4.8-4.8c0-1.8-0.9-3.4-2.5-4.2c0.5-0.9,1.4-1.5,2.5-1.5c1.5,0,2.8,1.3,2.8,2.8V65
		c0,1.5-1.3,2.8-2.8,2.8c-0.8,0-1.5-0.4-2.1-0.9c-0.4-0.4-0.8-0.6-1.4-0.6c-0.5,0-1.1,0.1-1.4,0.6c-0.8,0.7-0.8,2-0.1,2.7
		c0.8,0.9,1.9,1.5,3,1.9c0.5,0.8,0.8,1.8,0.8,2.7c0,2.7-2.2,5-5,5c-2.2,0-4.2-1.5-4.8-3.6c1.6-0.8,2.7-2.5,2.7-4.3
		c0-2.7-2.1-4.8-4.8-4.8c-2.7,0-4.8,2.1-4.8,4.8c0,2,1.2,3.7,2.9,4.4c0.5,2.7,2.1,5,4.4,6.3c-0.7,1.2-2,1.9-3.4,1.9
		c-2.2,0-4.1-1.9-4.1-4.1V75c0-1.1-0.8-2-2-2s-2,0.8-2,2v4.8c0,2.1,0.8,4.1,2.3,5.6s3.5,2.3,5.6,2.3c3,0,6-1.8,7.3-4.6
		c0.1,0,0.4,0,0.5,0c4.9,0,8.9-4,8.9-8.9c0-0.9-0.1-1.9-0.5-2.8c2.6-0.9,4.3-3.5,4.3-6.3v-7.7c0-3.3-2.3-6-5.4-6.6
		c0-0.4,0.1-0.6,0.1-0.9c0-3.6-2.9-6.6-6.6-6.6c-0.4,0-0.7,0-0.9,0.1c-1.1-3.3-4.1-5.4-7.5-5.4c-4.3,0-7.8,3.5-7.8,7.8v18.3
		C76.9,65.3,77.8,66.2,78.8,66.2z M87.7,51.1c0,0.5-0.4,0.9-0.9,0.9c-0.5,0-0.9-0.4-0.9-0.9c0-0.5,0.4-0.9,0.9-0.9
		C87.4,50.2,87.7,50.5,87.7,51.1z M94.6,60.4c0,0.5-0.4,0.9-0.9,0.9c-0.5,0-0.9-0.4-0.9-0.9c0-0.5,0.4-0.9,0.9-0.9
		C94.3,59.5,94.6,59.9,94.6,60.4z M86.4,71.5c0,0.5-0.4,0.9-0.9,0.9c-0.5,0-0.9-0.4-0.9-0.9c0-0.5,0.4-0.9,0.9-0.9
		C86.1,70.5,86.4,70.9,86.4,71.5z"/>
	<path class="st1" d="M78.8,71.9c0.5,0,1.1-0.2,1.4-0.6c0.4-0.4,0.6-0.8,0.6-1.4c0-0.5-0.2-1.1-0.6-1.4l0,0
		c-0.4-0.4-0.8-0.6-1.4-0.6c-0.5,0-1.1,0.2-1.4,0.6c-0.4,0.4-0.6,0.8-0.6,1.4c0,0.6,0.2,1.1,0.6,1.4C77.9,71.8,78.3,71.9,78.8,71.9z
		"/>
	<path class="st1" d="M60,89.2L60,89.2c-0.5,0-1.1,0.2-1.4,0.6c-0.7,0.7-0.7,2,0,2.7c4.7,4.7,10.9,7.3,17.4,7.3s12.8-2.6,17.4-7.3
		c0.4-0.4,0.6-0.8,0.6-1.4c0-0.5-0.2-1.1-0.6-1.4c-0.7-0.7-2-0.7-2.7,0c-4,4-9.1,6.1-14.7,6.1c-5.6,0-10.8-2.1-14.7-6.1
		C60.9,89.4,60.4,89.2,60,89.2z"/>
	<path class="st1" d="M108.1,44c0,1.1,0.8,2,2,2h0.9c1.1,0,2-0.8,2-2s-0.8-2-2-2h-1.1C108.9,42,108.1,42.9,108.1,44z"/>
	<path class="st1" d="M103,45.8h1.1c1.1,0,2-0.8,2-2s-0.8-2-2-2h-0.9c-1.1,0-2,0.8-2,2S102,45.8,103,45.8z"/>
	<path class="st1" d="M107,45c-1.1,0-2,0.8-2,2V48c0,1.1,0.8,2,2,2c1.1,0,2-0.8,2-2v-1.1C109,45.8,108.1,45,107,45z"/>
	<path class="st1" d="M107,42.9c1.1,0,2-0.8,2-2V40c0-1.1-0.8-2-2-2c-1.1,0-2,0.8-2,2V41C105.1,42.1,106,42.9,107,42.9z"/>
	<path class="st1" d="M49,104.1h-1.1c-1.1,0-2,0.8-2,2c0,1.1,0.8,2,2,2h0.9c1.1,0,2-0.8,2-2S50,104.1,49,104.1z"/>
	<path class="st1" d="M43.9,106c0-1.1-0.8-2-2-2H41c-1.1,0-2,0.8-2,2c0,1.1,0.8,2,2,2h1.1C43.1,108,43.9,107.1,43.9,106z"/>
	<path class="st1" d="M45,107.1c-1.1,0-2,0.8-2,2v0.9c0,1.1,0.8,2,2,2c1.1,0,2-0.8,2-2v-1.1C46.9,107.9,46,107.1,45,107.1z"/>
	<path class="st1" d="M45,105c1.1,0,2-0.8,2-2V102c0-1.1-0.8-2-2-2c-1.1,0-2,0.8-2,2v0.9C43,104.1,43.9,105,45,105z"/>
</g>
</svg>
