<?xml version="1.0" encoding="utf-8"?>
<!-- Generator: Adobe Illustrator 24.1.0, SVG Export Plug-In . SVG Version: 6.00 Build 0)  -->
<svg version="1.1" id="Camada_1" xmlns="http://www.w3.org/2000/svg" xmlns:xlink="http://www.w3.org/1999/xlink" x="0px" y="0px"
	 viewBox="0 0 150 150" style="enable-background:new 0 0 150 150;" xml:space="preserve">
<style type="text/css">
	.st0{fill:#9475D0;}
	.st1{fill:#FFFFFF;}
</style>
<circle class="st0" cx="75" cy="75" r="75"/>
<g>
	<path class="st1" d="M96.1,79.6c0-0.1,0-0.2,0.1-0.4L108.6,67c1.6-1.5,2.2-3.9,1.5-6c-0.7-2.1-2.5-3.6-4.7-4l-17.2-2.5
		c-0.1,0-0.2-0.1-0.2-0.2l-7.7-15.6c-0.9-2-3-3.3-5.3-3.3s-4.2,1.3-5.3,3.3L62,54.4c0,0.1-0.1,0.2-0.2,0.2l-17.2,2.6
		c-2.2,0.4-4,1.9-4.7,4c-0.7,2.1-0.1,4.5,1.5,6l12.4,12.2c0.1,0.1,0.1,0.2,0.1,0.4L51,96.8c-0.4,2.2,0.5,4.5,2.3,5.7
		c1.1,0.7,2.2,1.2,3.4,1.2c0.9,0,1.9-0.2,2.7-0.7l15.5-8.1c0.1,0,0.2,0,0.4,0l15.5,8.1c0.8,0.5,1.8,0.7,2.7,0.7l0,0
		c1.3,0,2.5-0.4,3.4-1.2c1.9-1.3,2.7-3.5,2.3-5.7L96.1,79.6z M56.4,97.7l2.9-17.1c0.4-1.9-0.4-3.9-1.6-5.2L45.1,63.2
		c0,0-0.1-0.1-0.1-0.4c0.1-0.2,0.2-0.2,0.4-0.2l17.2-2.5c1.9-0.2,3.5-1.5,4.5-3.2l7.7-15.6c0,0,0.1-0.2,0.4-0.2
		c0.2,0,0.4,0.1,0.4,0.2L83.2,57c0.8,1.8,2.5,2.9,4.5,3.2l17.2,2.5c0,0,0.2,0,0.4,0.2c0.1,0.2,0,0.4-0.1,0.4L92.4,75.4
		c-1.4,1.3-2,3.3-1.6,5.2l2.9,17.1c0,0,0,0.2-0.1,0.4c-0.2,0.1-0.4,0.1-0.4,0l-15.5-8.1c-0.8-0.5-1.8-0.7-2.7-0.7
		c-0.9,0-1.9,0.2-2.7,0.7L57,98c0,0-0.2,0.1-0.4,0C56.2,98,56.2,97.7,56.4,97.7z"/>
	<path class="st1" d="M94.2,46.1c0.5,0.4,1.1,0.5,1.6,0.5c0.8,0,1.8-0.5,2.2-1.2l2.2-3c0.9-1.2,0.6-2.9-0.6-3.9
		c-1.2-0.9-2.9-0.6-3.9,0.6l-2.2,3.2C92.7,43.5,93,45.1,94.2,46.1z"/>
	<path class="st1" d="M51.9,45.5c0.5,0.7,1.3,1.2,2.2,1.2c0.6,0,1.2-0.2,1.6-0.5c0.6-0.5,0.9-1.1,1.1-1.8c0.1-0.7-0.1-1.4-0.5-2
		l-2.2-3c-0.9-1.2-2.6-1.5-3.9-0.6c-1.2,0.9-1.5,2.6-0.6,3.9L51.9,45.5z"/>
	<path class="st1" d="M43.8,82.6c-0.5-1.4-2-2.2-3.4-1.8L36.9,82c-0.7,0.2-1.3,0.7-1.6,1.4c-0.4,0.7-0.4,1.4-0.1,2.1
		c0.4,1.2,1.4,1.9,2.6,1.9c0.2,0,0.6,0,0.8-0.1l3.5-1.2C43.6,85.6,44.3,84,43.8,82.6L43.8,82.6z"/>
	<path class="st1" d="M75,105.2c-1.5,0-2.7,1.2-2.7,2.7v3.7c0,1.5,1.2,2.7,2.7,2.7c1.5,0,2.7-1.2,2.7-2.7v-3.7
		C77.7,106.4,76.5,105.2,75,105.2z"/>
	<path class="st1" d="M113.2,82l-3.5-1.2c-1.4-0.5-2.9,0.4-3.4,1.8c-0.2,0.7-0.1,1.4,0.1,2.1c0.4,0.7,0.9,1.2,1.6,1.4l3.5,1.2
		c0.2,0.1,0.6,0.1,0.8,0.1c1.2,0,2.2-0.7,2.6-1.9C115.4,84,114.6,82.5,113.2,82z"/>
</g>
</svg>
