<?xml version="1.0" encoding="utf-8"?>
<!-- Generator: Adobe Illustrator 24.1.0, SVG Export Plug-In . SVG Version: 6.00 Build 0)  -->
<svg version="1.1" id="Camada_1" xmlns="http://www.w3.org/2000/svg" xmlns:xlink="http://www.w3.org/1999/xlink" x="0px" y="0px"
	 viewBox="0 0 150 150" style="enable-background:new 0 0 150 150;" xml:space="preserve">
<style type="text/css">
	.st0{fill:#5FA9FF;}
	.st1{fill:#FFFFFF;}
</style>
<circle class="st0" cx="75" cy="75" r="75"/>
<path class="st1" d="M90.9,93.5H72.6c-2.8,0-5-2.3-5-5v-5h18.3c4.6,0,8.5-3.8,8.5-8.5s-3.8-8.5-8.5-8.5H67.6V49.5
	c0-4.6-3.8-8.5-8.5-8.5c-4.6,0-8.5,3.8-8.5,8.5v39c0,12.2,9.9,21.9,21.9,21.9h18.3c4.6,0,8.5-3.8,8.5-8.5
	C99.3,97.2,95.6,93.5,90.9,93.5z M55.5,49.5c0-2,1.6-3.6,3.6-3.6c2,0,3.6,1.6,3.6,3.6v19.4c0,1.4,1.1,2.4,2.4,2.4h20.8
	c2,0,3.6,1.6,3.6,3.6c0,2-1.6,3.6-3.6,3.6H65.1c-1.4,0-2.4,1.1-2.4,2.4v7.4c0,5.4,4.4,9.9,9.9,9.9h18.3c2,0,3.6,1.6,3.6,3.6
	c0,2-1.6,3.6-3.6,3.6H72.6c-9.4,0-17-7.6-17-17v-39H55.5z"/>
</svg>
