<?xml version="1.0" encoding="utf-8"?>
<!-- Generator: Adobe Illustrator 24.1.0, SVG Export Plug-In . SVG Version: 6.00 Build 0)  -->
<svg version="1.1" id="Camada_1" xmlns="http://www.w3.org/2000/svg" xmlns:xlink="http://www.w3.org/1999/xlink" x="0px" y="0px"
	 viewBox="0 0 150 150" style="enable-background:new 0 0 150 150;" xml:space="preserve">
<style type="text/css">
	.st0{fill:#9475D0;}
	.st1{fill:#FFFFFF;}
</style>
<circle class="st0" cx="75" cy="75" r="75"/>
<g>
	<path class="st1" d="M108,73.8l-1.7-0.9l0.4-5.8c0.1-1-0.3-2-1-2.8C105,63.5,104,63,103,63h-3c-1,0-2,0.4-2.7,1.2
		c-0.7,0.7-1,1.8-1,2.8v0.5l-12.6-6.8v-11c0-4.4-1.2-8.6-3.5-12.3c-1.2-1.8-3.1-3-5.2-3c-2.1,0-4,1.1-5.2,3
		c-2.3,3.6-3.5,7.9-3.5,12.3v11l-12.6,6.8V67c0.1-1-0.3-2-1-2.8C52,63.5,51,63,50,63h-3c-1,0-2,0.4-2.7,1.2c-0.7,0.7-1,1.8-1,2.8
		l0.4,5.8L42,73.8c-2,1.1-3.3,3.2-3.3,5.5v4.6c0,0.9,0.4,1.7,1.1,2.2c0.5,0.4,1.1,0.6,1.7,0.6c0.3,0,0.5,0,0.8-0.1l24-6.7v8
		c0,1.7,0.1,3.4,0.3,5.1l-9.2,4.9c-1.6,0.9-2.6,2.5-2.6,4.4v1.6c0,1,0.4,1.9,1.1,2.6c0.7,0.6,1.7,1,2.7,0.9l10.8-1.2
		c0.8,0.9,1.9,1.4,3.1,1.4h4.8c1.2,0,2.3-0.5,3.1-1.4l10.9,1.2c1,0.1,1.9-0.2,2.7-0.9c0.7-0.6,1.1-1.6,1.1-2.6v-1.6
		c0-1.8-1-3.5-2.6-4.4l-9.1-4.9c0.2-1.8,0.3-3.5,0.3-5.3v-7.8l24,6.7c0.2,0.1,0.5,0.1,0.8,0.1c0.6,0,1.2-0.2,1.7-0.6
		c0.7-0.5,1.1-1.4,1.1-2.2v-4.6C111.3,76.9,110.1,74.8,108,73.8z M100.3,66.9h2.5l-0.3,3.8l-2-1.1L100.3,66.9z M90.1,74.8
		c1.1,0,2-0.9,2-2v-3.2l14.1,7.6c0.8,0.4,1.2,1.2,1.2,2.1v3.1l-23.6-6.6V65.1l4.3,2.3v5.3C88.1,73.8,89,74.8,90.1,74.8z M78.1,101
		l-0.4,2.2c0,0.1-0.1,0.2-0.3,0.2h-4.8c-0.1,0-0.2-0.1-0.3-0.2L72,101H78.1z M47.4,66.9h2.5l-0.2,2.7l-2,1.1L47.4,66.9z M60.1,74.8
		c1.1,0,2-0.9,2-2v-5.3l4.3-2.3v10.6l-23.6,6.6v-3.1c0-0.9,0.5-1.7,1.2-2.1l14.1-7.6v3.2C58.2,73.8,59,74.8,60.1,74.8z M91.4,102.1
		v1l-9.5-1.1l0.9-5.1l8.1,4.3l0,0C91.2,101.4,91.4,101.8,91.4,102.1z M78.6,44.2l-2.5-1.6c-0.6-0.4-1.4-0.4-2,0l-2.5,1.5
		c-0.2,0.1-0.4,0.3-0.6,0.5c0.5-1.8,1.2-3.6,2.2-5.2c0.4-0.7,1.1-1.1,1.9-1.1c0.7,0,1.4,0.4,1.9,1.1c1,1.6,1.8,3.3,2.2,5.2
		C79,44.5,78.8,44.3,78.6,44.2z M70.7,46.2c0,0.2,0.1,0.4,0.2,0.6c0.6,0.9,1.8,1.2,2.7,0.7l1.5-0.9l1.5,0.9c0.3,0.2,0.7,0.3,1,0.3
		c0.7,0,1.3-0.4,1.7-0.9c0.1-0.2,0.2-0.4,0.2-0.6c0.2,1.1,0.3,2.3,0.3,3.4v38c0,1.4-0.1,2.7-0.2,4.1c-0.1,0.8-0.2,1.5-0.3,2.2
		l-0.5,3.1h-7.4l-0.5-3.3c-0.1-0.7-0.2-1.3-0.3-2c-0.1-1.3-0.2-2.7-0.2-4V49.7C70.4,48.5,70.5,47.4,70.7,46.2z M68.2,102.1l-9.4,1
		v-1c0-0.4,0.2-0.7,0.5-0.9l8-4.2L68.2,102.1z"/>
	<path class="st1" d="M75.1,81.2c1.1,0,2-0.9,2-2V62.5c0-1.1-0.9-2-2-2c-0.5,0-1,0.2-1.4,0.6c-0.4,0.4-0.6,0.9-0.6,1.4v16.7
		C73.1,80.3,74,81.2,75.1,81.2z"/>
	<path class="st1" d="M77,84.5c0-0.1-0.1-0.2-0.1-0.4c0-0.1-0.1-0.2-0.2-0.3c-0.1-0.1-0.2-0.2-0.2-0.3C76,83,75.4,82.8,74.7,83
		c-0.1,0-0.3,0.1-0.4,0.1c-0.1,0-0.2,0.1-0.3,0.2c-0.1,0.1-0.2,0.2-0.3,0.2c-0.1,0.1-0.2,0.2-0.2,0.3c-0.1,0.1-0.1,0.2-0.2,0.3
		c0,0.1-0.1,0.2-0.1,0.4c0,0.1,0,0.3,0,0.4s0,0.3,0,0.4s0.1,0.3,0.1,0.4s0.1,0.2,0.2,0.3c0.1,0.1,0.2,0.2,0.2,0.3
		c0.1,0.1,0.2,0.2,0.3,0.2c0.1,0.1,0.2,0.1,0.3,0.2c0.1,0,0.2,0.1,0.4,0.1c0.1,0,0.3,0,0.4,0c0.1,0,0.3,0,0.4,0
		c0.1,0,0.3-0.1,0.4-0.1c0.1,0,0.2-0.1,0.3-0.2s0.2-0.2,0.3-0.2c0.1-0.1,0.2-0.2,0.2-0.3c0.1-0.1,0.1-0.2,0.2-0.3
		c0.1-0.1,0.1-0.2,0.1-0.4c0-0.1,0-0.3,0-0.4C77.1,84.8,77.1,84.6,77,84.5L77,84.5z"/>
</g>
</svg>
