<?xml version="1.0" encoding="utf-8"?>
<!-- Generator: Adobe Illustrator 24.1.0, SVG Export Plug-In . SVG Version: 6.00 Build 0)  -->
<svg version="1.1" id="Camada_1" xmlns="http://www.w3.org/2000/svg" xmlns:xlink="http://www.w3.org/1999/xlink" x="0px" y="0px"
	 viewBox="0 0 150 150" style="enable-background:new 0 0 150 150;" xml:space="preserve">
<style type="text/css">
	.st0{fill:#5FA9FF;}
	.st1{fill:#FFFFFF;}
</style>
<circle class="st0" cx="75" cy="75" r="75"/>
<g>
	<path class="st1" d="M113,63.6v-0.6l0,0c-0.5-8-7.4-14.6-15.5-14.7L87,48.1c-6.9-0.1-17.7-0.1-24,0l-10.8,0.1
		c-8.1,0.1-15,6.7-15.3,14.7v0.6c-0.4,6.6-0.4,17.4,0,24.2v0.6c0.4,8,7.2,14.6,15.3,14.7l10.8,0.2c3.2,0,7.5,0.1,12,0.1
		c4.5,0,8.8,0,12.1-0.1l10.6-0.2c8-0.1,15-6.7,15.5-14.7v-0.6C113.5,81.1,113.5,70.2,113,63.6z M107.6,87.4V88
		c-0.2,5-4.9,9.4-10.1,9.6L87,97.8c-6.6,0.1-17.4,0.1-23.9,0l-10.8-0.2c-5.2-0.1-9.6-4.4-9.9-9.6v-0.6c-0.4-6.5-0.4-17.1,0-23.6
		v-0.6c0.2-5.2,4.7-9.4,9.8-9.4L63,53.6c3.2,0,7.4-0.1,11.8-0.1s8.8,0,12.1,0.1l10.6,0.1c5.2,0.1,9.7,4.3,9.9,9.6v0.6
		C108,70.3,108,80.9,107.6,87.4z"/>
	<path class="st1" d="M87.9,72.5l-19-9.9c-0.9-0.5-1.8-0.4-2.7,0.1c-0.9,0.5-1.3,1.3-1.3,2.3v19.9c0,1,0.5,1.8,1.3,2.3
		c0.5,0.2,1,0.4,1.5,0.4c0.5,0,0.9-0.1,1.2-0.4l19-9.9c0.9-0.5,1.5-1.3,1.5-2.5C89.4,73.9,88.9,73,87.9,72.5z M80.8,75l-10.3,5.4
		V69.6L80.8,75z"/>
</g>
</svg>
